<svg fill="none" xmlns="http://www.w3.org/2000/svg" viewBox="0 0 1504 452">
  <path fill="url(#paint1_linear)" d="M-141.585.073h1514.67v451.831h-1514.67z"/>
  <path opacity=".16" d="M-929.428 288.462h0c6.456-.525 13.045.935 19.762 3.476 6.72 2.542 13.502 6.138 20.35 9.837l1.399.757c6.368 3.444 12.79 6.917 19.185 9.585 6.867 2.864 13.775 4.832 20.65 4.832 6.854 0 13.721-1.974 20.54-4.858 6.471-2.736 12.962-6.321 19.401-9.877l1.031-.569c6.798-3.752 13.538-7.422 20.237-10.065 6.695-2.642 13.284-4.23 19.772-3.867 29.159 1.637 57.818 11.441 86.678 21.63l3.326 1.176c27.718 9.797 55.641 19.667 84.173 22.515 28.32 2.828 57.539-1.298 86.604-5.403l3.761-.53c30.357-4.274 60.505-8.197 89.532-3.997 29.245 4.231 57.062 16.545 84.859 29.255l3.995 1.828c26.42 12.099 52.885 24.218 80.414 29.538 19.692 3.804 40.793-.41 61.71-4.773l1.622-.338c20.455-4.272 40.704-8.501 59.669-5.696 18.553 2.744 36.378 12.286 54.388 21.928l2.666 1.427c18.839 10.067 37.925 19.878 57.986 21.259 20.063 1.381 40.212-5.716 60.158-13.275 1.414-.536 2.827-1.074 4.238-1.612 18.59-7.081 37.003-14.095 55.311-14.906 18.447-.815 37.616 4.128 56.974 9.119 1.928.498 3.857.995 5.788 1.488 21.237 5.415 42.622 10.2 63.04 6.449 20.348-3.738 38.684-15.835 56.728-28.252 1.057-.728 2.113-1.456 3.168-2.185 17.034-11.751 33.906-23.39 52.282-28.58 18.952-5.355 40.089-4.041 61.394-2.716l2.052.127c21.911 1.356 43.931 2.496 63.394-4.133l-.323-.947.323.947c22.951-7.822 42.709-23.678 62.162-39.7l2.441-2.012c18.676-15.398 37.183-30.658 58.243-39.196 22.029-8.928 46.939-10.575 72.138-11.967l2.778-.153c24.223-1.329 48.621-2.668 70.541-10.407 20.1-7.096 38.656-19.816 57.15-32.495 2.305-1.581 4.61-3.16 6.916-4.729 20.869-14.19 41.921-27.45 65.518-32.092 15.995-3.148 33.269 1.812 50.894 7.324l3.048.956c16.529 5.194 33.3 10.463 49.112 9.091 15.821-1.372 31.4-9.459 46.75-17.428.93-.487 1.87-.973 2.8-1.457 16.37-8.469 32.48-16.337 48.79-16.004 16.31.333 32.08 8.846 48.07 17.974.92.526 1.85 1.053 2.77 1.581 14.99 8.584 30.2 17.294 45.94 19.32 25.37 3.266 51.87.908 78.3-1.444 2.79-.248 5.57-.495 8.35-.736 29.24-2.535 58.27-4.339 85.76 2.055 27.29 6.355 52.57 20.812 77.94 35.628l2.55 1.494c24.47 14.304 49.09 28.695 75.57 35.945 27.55 7.547 57.11 7.449 86.46 7.19l1.96-.018c28.74-.257 57.22-.512 83.66 6.126l.24-.97-.24.97c26.17 6.567 49.13 20.423 71.29 34.008l1.66 1.017c21.51 13.195 42.35 25.978 64.51 31.043 25.28 5.776 51.39 3.26 77.16.294 1.66-.192 3.33-.385 4.98-.578 24.13-2.805 47.9-5.569 70.64-2.013 20.99 3.281 41.53 12.554 62.78 22.147 2.3 1.036 4.6 2.077 6.91 3.113 23.68 10.607 48.32 20.828 75.22 22.666 5.07.345 10.11-1.424 15.03-4.144 4.92-2.721 9.81-6.455 14.58-10.154l1.02-.791c4.43-3.447 8.75-6.802 12.96-9.327 4.53-2.722 8.8-4.388 12.8-4.228 4.66.187 9.27 2.23 13.86 5.303 4.6 3.072 9.09 7.11 13.55 11.186l.92.839c4.13 3.775 8.23 7.528 12.28 10.406 4.34 3.083 8.76 5.268 13.24 5.321 10.7.126 24.69-4.75 37.75-9.587 1.28-.472 2.55-.944 3.8-1.412 5.21-1.944 10.23-3.812 14.8-5.298 5.28-1.717 9.88-2.889 13.45-3.098 1.58 7.611.54 13.572-1.91 18.734-2.55 5.388-6.66 9.953-11.11 14.654-.44.46-.88.921-1.32 1.384-8.5 8.936-17.68 18.578-17.68 35.023 0 17.24 8.29 25.912 16.35 34.339l.03.031c8.04 8.404 15.83 16.573 15.83 32.991 0 8.505 1.08 15.881 2.16 22.16.19 1.107.38 2.175.56 3.206.86 4.871 1.58 8.925 1.59 12.315.01 4.032-.99 6.887-3.84 8.925-2.95 2.118-8.04 3.473-16.57 3.961-555.76 31.73-586.82 31.723-1084.83 31.624-29.45-.006-60.53-.012-93.45-.012-294.797 0-442.189-7.911-589.59-15.823h-.003c-147.421-7.913-294.852-15.826-589.697-15.826-259.435 0-405.068 11.95-536.93 22.77-18.009 1.478-35.76 2.934-53.51 4.337-147.681 11.667-295.259 19.572-589.64 4.521-3.73-.191-6.07-1.028-7.46-2.237-1.34-1.171-1.94-2.824-1.87-5.043.07-2.251.83-4.994 2.1-8.163 1.28-3.155 3.03-6.659 5.04-10.414 1.26-2.338 2.61-4.776 4-7.281 3.05-5.504 6.29-11.333 9.03-17.142 4-8.453 7.05-17.047 7.05-24.814 0-7.682-1.55-13.318-4.04-17.905-2.47-4.568-5.85-8.033-9.36-11.39-.53-.504-1.06-1.006-1.6-1.51-6.57-6.211-13.42-12.682-16.76-25.926-4.2-16.637-6.34-26.481-6.34-35.751-.01-9.156 2.05-17.811 6.41-31.973 5.21-2.282 12.04-3.594 19.93-4.427 7.42-.783 15.69-1.137 24.36-1.508l2.38-.102c18.99-.822 39.61-1.909 56.34-7.958 6.5-2.35 12.52-6.618 18.35-11.762 4.85-4.283 9.63-9.22 14.46-14.219.97-1.002 1.94-2.006 2.92-3.008 11.73-12.068 24.02-23.829 39.36-28.014 6.56-1.79 13.73-1.688 21.35-.577 7.62 1.112 15.61 3.22 23.79 5.397l.57.152c16.11 4.287 32.96 8.775 48.52 5.87 6.779-1.265 13.237-4.431 19.493-8.446 5.724-3.672 11.333-8.092 16.892-12.47l1.538-1.212c6.082-4.783 12.114-9.435 18.269-13.027 6.151-3.591 12.366-6.087 18.8-6.607z" stroke="url(#paint2_linear)" stroke-width="2" transform="translate(-33)"/>
  <path opacity=".04" d="M-1277.57 389.652c21.65-9.855 70.37-2.231 103.49-14.207 25.31-9.153 43.89-48.495 75.16-57.028 26.98-7.361 63.36 16.603 94.32 10.824 26.392-4.927 48.538-39.63 75.091-41.776 26.634-2.165 54.671 28.484 81.427 28.484 26.666 0 54.291-30.734 81.037-29.234 58.646 3.291 115.159 39.428 174.221 45.324 58.793 5.871 121.562-18.372 179.94-9.925 58.816 8.51 111.764 49.508 169.315 60.629 38.921 7.52 83.601-16.634 122.957-10.814 39.356 5.82 75.336 41.877 114.962 44.605 39.627 2.728 79.804-28.031 119.595-29.794 40.937-1.81 85.317 24.484 125.665 17.072 40.213-7.387 72.67-47.863 112.087-58.997 39.517-11.165 88.3 6.403 126.789-6.706 45.505-15.508 78.496-62.93 122.793-80.887 44.416-18.002 100.308-6.59 145.5-22.544 44.905-15.852 82.084-59.983 129.724-69.354 32.569-6.409 70.073 20.226 103.161 17.356 33.086-2.871 65.246-35.57 98.446-34.893 33.21.678 63.96 34.643 96.89 38.884 55.81 7.184 117.18-12.976 172.5-.108 54.94 12.789 101.61 58.154 156.1 73.077 54.8 15.007 117.69-.361 172.06 13.292 52.68 13.22 92.36 55.762 137.44 66.063 50.19 11.467 103.78-9.963 152.72-2.31 46.83 7.323 91.41 44.267 144.82 47.916 19.17 1.307 39.19-29.332 56.36-28.645 19.7.791 37.15 32.857 53.82 33.054 20.96.246 55.24-19.17 70.58-19.426 7.52 32.86-31.81 37.149-31.81 70.826 0 33.677 32.21 33.68 32.21 67.361 0 33.68 17.18 49.609-17.04 51.565-588.66 33.608-588.7 31.614-1178.34 31.614-589.645 0-589.648-31.649-1179.29-31.649-589.642 0-591.278 61.734-1180.13 31.627-30.64-1.564 16.94-45.948 16.94-76.093 0-30.145-24.35-27.218-31.73-56.487-8.39-33.24-8.68-39.845.22-68.696z" fill="url(#paint3_linear)" transform="translate(-33)"/>
  <path opacity=".08" d="M-1175.71 373.982c21.64-9.855 70.36-2.231 103.49-14.207 25.31-9.153 43.89-48.495 75.157-57.028 26.975-7.361 63.361 16.603 94.317 10.824 26.392-4.927 48.539-39.63 75.092-41.776 26.633-2.165 54.671 28.484 81.427 28.484 26.665 0 54.291-30.734 81.037-29.234 58.645 3.292 115.159 39.428 174.22 45.324 58.794 5.871 121.562-18.372 179.941-9.925 58.816 8.51 111.764 49.508 169.315 60.629 38.921 7.52 83.6-16.634 122.956-10.814 39.356 5.82 75.336 41.877 114.963 44.605 39.626 2.729 79.804-28.031 119.594-29.794 40.937-1.81 85.318 24.484 125.666 17.072 40.212-7.387 72.669-47.862 112.086-58.996 39.517-11.166 88.301 6.402 126.79-6.707 45.504-15.508 78.496-62.93 122.792-80.887 44.416-18.002 100.308-6.589 145.5-22.544 44.906-15.852 82.084-59.983 129.724-69.354 32.573-6.409 70.073 20.226 103.163 17.356 33.09-2.871 65.24-35.57 98.45-34.893 33.21.678 63.95 34.643 96.88 38.884 55.81 7.184 117.18-12.976 172.51-.108 54.93 12.789 101.6 58.154 156.1 73.077 54.79 15.007 117.68-.361 172.06 13.292 52.67 13.22 92.36 55.762 137.44 66.063 50.18 11.467 103.77-9.963 152.71-2.31 46.83 7.324 91.42 44.267 144.82 47.916 19.17 1.307 39.19-29.332 56.37-28.645 19.7.791 37.14 32.857 53.81 33.054 20.96.247 55.25-19.17 70.59-19.426 7.51 32.86-31.82 37.149-31.82 70.826 0 33.677 32.21 33.681 32.21 67.361 0 33.68 17.18 49.609-17.04 51.565-588.65 33.608-588.7 31.614-1178.34 31.614-589.64 0-589.643-31.649-1179.285-31.649-589.643 0-591.279 61.734-1180.125 31.627-30.64-1.564 16.94-45.948 16.94-76.093 0-30.145-24.35-27.218-31.74-56.486-8.38-33.241-8.68-39.846.23-68.697z" fill="url(#paint4_linear)" transform="translate(-33)"/>
  <path opacity=".5" d="M-827.574 272.792h.001c6.455-.525 13.045.935 19.761 3.476 6.721 2.542 13.502 6.138 20.35 9.837l1.399.757c6.368 3.444 12.79 6.917 19.185 9.585 6.868 2.864 13.776 4.832 20.651 4.832 6.853 0 13.72-1.974 20.54-4.858 6.47-2.736 12.962-6.321 19.401-9.877l1.03-.569c6.799-3.752 13.538-7.422 20.237-10.065 6.695-2.641 13.285-4.23 19.773-3.866 29.158 1.636 57.817 11.44 86.677 21.629l3.327 1.176c27.717 9.797 55.64 19.667 84.173 22.515 28.319 2.828 57.538-1.298 86.604-5.403l3.761-.53c30.357-4.274 60.505-8.197 89.531-3.997 29.246 4.231 57.062 16.545 84.86 29.255l3.994 1.828c26.42 12.099 52.885 24.218 80.415 29.538 19.691 3.805 40.792-.409 61.71-4.773l1.621-.338c20.455-4.272 40.704-8.5 59.67-5.696 18.553 2.744 36.377 12.286 54.387 21.928.889.476 1.777.952 2.667 1.427 18.838 10.067 37.925 19.878 57.985 21.259 20.064 1.381 40.212-5.716 60.159-13.275 1.413-.536 2.826-1.074 4.237-1.612 18.591-7.081 37.003-14.094 55.312-14.906 18.447-.815 37.616 4.128 56.973 9.119 1.928.498 3.858.995 5.789 1.488 21.237 5.415 42.621 10.2 63.04 6.449 20.348-3.738 38.684-15.835 56.727-28.252l3.169-2.184c17.034-11.752 33.906-23.391 52.281-28.581 18.953-5.355 40.09-4.041 61.394-2.716l2.053.127c21.91 1.356 43.93 2.496 63.393-4.133l-.322-.947.323.947c22.951-7.822 42.709-23.678 62.162-39.7l2.44-2.011c18.676-15.399 37.183-30.659 58.243-39.196 22.029-8.929 46.939-10.576 72.138-11.968l2.778-.153c24.224-1.329 48.621-2.668 70.541-10.407 20.101-7.096 38.656-19.816 57.15-32.495 2.306-1.581 4.61-3.16 6.916-4.729 20.87-14.19 41.922-27.45 65.518-32.092 15.996-3.147 33.27 1.812 50.89 7.324 1.02.318 2.04.637 3.05.956 16.53 5.194 33.3 10.463 49.11 9.091 15.83-1.372 31.4-9.458 46.75-17.428.94-.487 1.87-.973 2.81-1.457 16.36-8.469 32.48-16.337 48.79-16.004 16.31.333 32.08 8.846 48.07 17.974.92.526 1.84 1.053 2.76 1.582 15 8.583 30.21 17.293 45.95 19.32 25.36 3.265 51.86.907 78.3-1.445 2.78-.248 5.56-.495 8.34-.736 29.24-2.534 58.27-4.339 85.76 2.055 27.3 6.355 52.57 20.812 77.94 35.628l2.56 1.494c24.47 14.304 49.09 28.695 75.56 35.945 27.56 7.547 57.12 7.449 86.46 7.19l1.97-.018c28.73-.257 57.22-.512 83.65 6.126l.25-.97-.25.97c26.17 6.567 49.14 20.423 71.29 34.009l1.66 1.016c21.51 13.195 42.35 25.978 64.51 31.043 25.29 5.777 51.39 3.26 77.17.294l4.98-.578c24.13-2.805 47.9-5.569 70.64-2.013 20.98 3.281 41.52 12.554 62.77 22.147 2.3 1.036 4.6 2.077 6.92 3.114 23.67 10.606 48.31 20.827 75.21 22.665 5.07.345 10.12-1.424 15.03-4.144 4.92-2.721 9.82-6.454 14.58-10.154l1.02-.791c4.44-3.447 8.76-6.802 12.96-9.327 4.54-2.722 8.8-4.388 12.81-4.228 4.66.187 9.26 2.23 13.86 5.303 4.59 3.072 9.09 7.11 13.55 11.186l.91.839c4.13 3.775 8.23 7.529 12.28 10.406 4.34 3.084 8.77 5.268 13.24 5.321 10.7.126 24.7-4.75 37.76-9.587l3.8-1.412c5.21-1.943 10.22-3.812 14.79-5.298 5.29-1.717 9.88-2.889 13.45-3.098 1.58 7.611.54 13.572-1.91 18.734-2.55 5.388-6.66 9.954-11.11 14.654-.43.46-.87.921-1.31 1.384-8.51 8.936-17.69 18.578-17.69 35.023 0 17.24 8.29 25.912 16.35 34.339l.03.032c8.04 8.403 15.83 16.572 15.83 32.99 0 8.505 1.09 15.881 2.17 22.16.19 1.107.37 2.175.56 3.207.86 4.87 1.58 8.924 1.58 12.314.01 4.033-.99 6.887-3.83 8.925-2.96 2.118-8.05 3.473-16.57 3.961-555.77 31.73-586.82 31.723-1084.84 31.624-29.45-.006-60.53-.012-93.45-.012-294.793 0-442.185-7.911-589.585-15.823h-.003c-147.421-7.913-294.852-15.826-589.697-15.826-259.436 0-405.068 11.95-536.931 22.77-18.008 1.478-35.76 2.935-53.51 4.337-147.681 11.667-295.259 19.572-589.634 4.521-3.74-.191-6.08-1.028-7.47-2.237-1.34-1.171-1.93-2.824-1.86-5.043.07-2.251.82-4.994 2.1-8.163 1.27-3.155 3.03-6.659 5.04-10.414 1.25-2.338 2.6-4.776 3.99-7.281 3.06-5.504 6.29-11.333 9.04-17.142 3.99-8.453 7.05-17.046 7.05-24.814 0-7.681-1.56-13.318-4.04-17.904-2.48-4.569-5.85-8.034-9.37-11.391l-1.59-1.51c-6.58-6.21-13.43-12.682-16.77-25.926-4.2-16.637-6.33-26.481-6.34-35.751-.01-9.156 2.06-17.811 6.42-31.973 5.21-2.282 12.03-3.593 19.93-4.427 7.41-.783 15.69-1.137 24.35-1.508l2.38-.102c19-.822 39.61-1.908 56.35-7.958 6.49-2.349 12.51-6.618 18.34-11.762 4.86-4.283 9.63-9.22 14.47-14.219.96-1.002 1.94-2.006 2.91-3.008 11.74-12.068 24.03-23.829 39.361-28.014 6.559-1.79 13.738-1.688 21.356-.577 7.621 1.112 15.609 3.22 23.789 5.397l.568.152c16.107 4.288 32.963 8.775 48.524 5.87 6.776-1.265 13.233-4.431 19.489-8.446 5.724-3.672 11.334-8.092 16.892-12.47l1.539-1.212c6.082-4.783 12.113-9.435 18.268-13.027 6.151-3.591 12.366-6.087 18.8-6.607z" stroke="url(#paint5_linear)" stroke-width="2" transform="translate(-33)"/>
  <defs>
    <linearGradient id="paint0_linear" x1="32.32" y1="0" x2="416.936" y2="904.358" gradientUnits="userSpaceOnUse">
      <stop stop-color="#392DD1"/>
      <stop offset="1" stop-color="#22B8CF"/>
    </linearGradient>
    <linearGradient id="paint1_linear" x1="-141.585" y1=".073" x2="235.226" y2="912.159" gradientUnits="userSpaceOnUse">
      <stop stop-color="#A43CE4"/>
      <stop offset="1" stop-color="#A72B6D"/>
    </linearGradient>
    <linearGradient id="paint2_linear" x1="1327.6" y1="225.904" x2="1219.88" y2="-104.687" gradientUnits="userSpaceOnUse">
      <stop stop-color="#fff" stop-opacity="0"/>
      <stop offset="1" stop-color="#fff"/>
    </linearGradient>
    <linearGradient id="paint3_linear" x1="-1284.16" y1="147.777" x2="-1103.39" y2="1183.01" gradientUnits="userSpaceOnUse">
      <stop stop-color="#fff"/>
      <stop offset="1" stop-color="#fff" stop-opacity="0"/>
    </linearGradient>
    <linearGradient id="paint4_linear" x1="526.82" y1="266.955" x2="514.208" y2="429.701" gradientUnits="userSpaceOnUse">
      <stop stop-color="#fff" stop-opacity=".23"/>
      <stop offset="1" stop-color="#fff"/>
    </linearGradient>
    <linearGradient id="paint5_linear" x1="1385.55" y1="357.82" x2="1261.91" y2="-45.7" gradientUnits="userSpaceOnUse">
      <stop stop-color="#fff"/>
      <stop offset="1" stop-color="#fff" stop-opacity="0"/>
    </linearGradient>
  </defs>
</svg>
