<svg fill="none" xmlns="http://www.w3.org/2000/svg" viewBox="0 0 1504 456">
  <mask id="a" mask-type="alpha" maskUnits="userSpaceOnUse" x="0" y="0" width="1504" height="456">
    <path fill="url(#paint0_linear)" d="M0 0h1504v456H0z"/>
  </mask>
  <g mask="url(#a)">
    <path fill="url(#paint1_linear)" d="M0 0h1504v456h-1504z"/>
    <mask id="b" mask-type="alpha" maskUnits="userSpaceOnUse" x="614" y="3" width="537" height="453">
      <path fill="#C4C4C4" d="M614.544 3.547h536.405V455.17H614.544z"/>
    </mask>
    <g clip-path="url(#clip0)" mask="url(#b)">
      <g opacity=".24" fill="#fff">
        <path opacity=".24" d="M659.579 591.027h.254v-20.161h-.254v-.508h.254v-20.156h-.254v-.507h.254v-20.161h-.254v-.508h.254V508.87h-.254v-.507h.254v-20.161h-.254v-.507h.254v-20.157h-.254v-.507h.254V446.87h-.254v-.508h.254v-20.156h-.254v-.507h.254v-20.161h-.254v-.507h.254v-20.157h-.254v-.507h.254v-20.161h-.254v-.508h.254v-20.156h-.254v-.507h.254v-20.161h-.254v-.508h.254V302.21h-.254v-.507h.254v-20.161h-.254v-.508h.254v-20.155h-.254v-.508h.254V240.21h-.254v-.508h.254v-20.155h-.254v-.508h.254v-20.161h-.254v-.508h.254v-20.155h-.254v-.508h.254v-20.161h-.254v-.507h.254v-20.156h-.254v-.508h.254v-20.161h-.254v-.507h.254V95.551h-.254v-.508h.254V74.882h-.254v-.508h.254V54.22h-.254v-.508h.254V33.55h-.254v-.508h.254V12.886h-.254v-.507h.254V-7.782h-.254v-.507h.254v-20.157h-.254v-.507h.254v-20.161h-.254v-.508h.254v-20.156h-.254v-.507h.254v-20.161h-.254v-.508h.254v-20.155h-.254v-.508h.254v-20.161h-.254v-.507h.254v-3.456h-.508V594.99h.508v-3.456h-.254v-.507zM680.501 116.214h-.508v20.161h.508v-20.161zM680.501 446.87h-.508v20.161h.508V446.87zM680.501 95.55h-.508v20.156h.508V95.55zM680.501 74.882h-.508v20.156h.508V74.882zM680.501 54.219h-.508v20.16h.508V54.22zM680.501 219.547h-.508v20.161h.508v-20.161zM680.501 12.886h-.508v20.161h.508v-20.16zM680.501 384.875h-.508v20.161h.508v-20.161zM680.501 302.21h-.508v20.156h.508V302.21zM680.501 322.874h-.508v20.161h.508v-20.161zM680.501 343.543h-.508v20.156h.508v-20.156zM680.501 364.206h-.508v20.156h.508v-20.156zM680.501-7.782h-.508v20.156h.508V-7.782zM680.501 240.21h-.508v20.156h.508V240.21zM680.501 178.214h-.508v20.161h.508v-20.161zM680.501 405.538h-.508v20.156h.508v-20.156zM680.501 33.55h-.508v20.156h.508V33.55zM680.501 157.546h-.508v20.156h.508v-20.156zM680.501 136.882h-.508v20.156h.508v-20.156zM680.501 260.878h-.508v20.156h.508v-20.156zM680.501 426.206h-.508v20.156h.508v-20.156zM680.501 281.542h-.508v20.161h.508v-20.161zM680.501 198.878h-.508v20.156h.508v-20.156zM701.164 364.206h-.508v20.156h.508v-20.156zM701.164 240.21h-.508v20.156h.508V240.21zM701.164 260.878h-.508v20.156h.508v-20.156zM701.164 219.547h-.508v20.161h.508v-20.161zM701.164 322.874h-.508v20.161h.508v-20.161zM701.164 343.543h-.508v20.156h.508v-20.156zM701.164 302.21h-.508v20.156h.508V302.21zM701.164-7.782h-.508v20.156h.508V-7.782zM701.164 281.542h-.508v20.161h.508v-20.161zM701.164 95.55h-.508v20.156h.508V95.55zM701.164 136.882h-.508v20.156h.508v-20.156zM701.164 116.214h-.508v20.161h.508v-20.161zM701.164 74.882h-.508v20.156h.508V74.882zM701.164 157.546h-.508v20.156h.508v-20.156zM701.164 198.878h-.508v20.156h.508v-20.156zM701.164 178.214h-.508v20.161h.508v-20.161zM701.164 33.55h-.508v20.156h.508V33.55zM701.164 54.219h-.508v20.16h.508V54.22zM701.164 12.886h-.508v20.161h.508v-20.16zM701.164 446.87h-.508v20.161h.508V446.87zM701.164 426.206h-.508v20.156h.508v-20.156zM701.164 384.875h-.508v20.161h.508v-20.161zM701.164 405.538h-.508v20.156h.508v-20.156zM721.828 157.546h-.508v20.156h.508v-20.156zM721.828 240.21h-.508v20.156h.508V240.21zM721.828 198.878h-.508v20.156h.508v-20.156zM721.828 219.547h-.508v20.161h.508v-20.161zM721.828-7.782h-.508v20.156h.508V-7.782zM721.828 33.55h-.508v20.156h.508V33.55zM721.828 54.219h-.508v20.16h.508V54.22zM721.828 12.886h-.508v20.161h.508v-20.16zM721.828 136.882h-.508v20.156h.508v-20.156zM721.828 260.878h-.508v20.156h.508v-20.156zM721.828 116.214h-.508v20.161h.508v-20.161zM721.828 74.882h-.508v20.156h.508V74.882zM721.828 95.55h-.508v20.156h.508V95.55zM721.828 281.542h-.508v20.161h.508v-20.161zM721.828 426.206h-.508v20.156h.508v-20.156zM721.828 446.87h-.508v20.161h.508V446.87zM721.828 405.538h-.508v20.156h.508v-20.156zM721.828 302.21h-.508v20.156h.508V302.21zM721.828 384.875h-.508v20.161h.508v-20.161zM721.828 322.874h-.508v20.161h.508v-20.161zM721.828 343.543h-.508v20.156h.508v-20.156zM721.828 364.206h-.508v20.156h.508v-20.156zM721.828 178.214h-.508v20.161h.508v-20.161zM742.497 74.882h-.508v20.156h.508V74.882zM742.497 136.882h-.508v20.156h.508v-20.156zM742.497 54.219h-.508v20.16h.508V54.22zM742.497 116.214h-.508v20.161h.508v-20.161zM742.497 157.546h-.508v20.156h.508v-20.156zM742.497 95.55h-.508v20.156h.508V95.55zM742.497-7.782h-.508v20.156h.508V-7.782zM742.497 33.55h-.508v20.156h.508V33.55zM742.497 364.206h-.508v20.156h.508v-20.156zM742.497 384.875h-.508v20.161h.508v-20.161zM742.497 405.538h-.508v20.156h.508v-20.156zM742.497 322.874h-.508v20.161h.508v-20.161zM742.497 343.543h-.508v20.156h.508v-20.156zM742.497 446.87h-.508v20.161h.508V446.87zM742.497 12.886h-.508v20.161h.508v-20.16zM742.497 302.21h-.508v20.156h.508V302.21zM742.497 426.206h-.508v20.156h.508v-20.156zM742.497 240.21h-.508v20.156h.508V240.21zM742.497 281.542h-.508v20.161h.508v-20.161zM742.497 198.878h-.508v20.156h.508v-20.156zM742.497 260.878h-.508v20.156h.508v-20.156zM742.497 178.214h-.508v20.161h.508v-20.161zM742.497 219.547h-.508v20.161h.508v-20.161zM763.165 219.547h-.508v20.161h.508v-20.161zM763.165 54.219h-.508v20.16h.508V54.22zM763.165 33.55h-.508v20.156h.508V33.55zM763.165 74.882h-.508v20.156h.508V74.882zM763.165 260.878h-.508v20.156h.508v-20.156zM763.165 12.886h-.508v20.161h.508v-20.16zM763.165 240.21h-.508v20.156h.508V240.21zM763.165 95.55h-.508v20.156h.508V95.55zM763.165 198.878h-.508v20.156h.508v-20.156zM763.165 157.546h-.508v20.156h.508v-20.156zM763.165 136.882h-.508v20.156h.508v-20.156zM763.165-7.782h-.508v20.156h.508V-7.782zM763.165 116.214h-.508v20.161h.508v-20.161zM763.165 302.21h-.508v20.156h.508V302.21zM763.165 426.206h-.508v20.156h.508v-20.156zM763.165 405.538h-.508v20.156h.508v-20.156zM763.165 446.87h-.508v20.161h.508V446.87zM763.165 178.214h-.508v20.161h.508v-20.161zM763.165 281.542h-.508v20.161h.508v-20.161zM763.165 384.875h-.508v20.161h.508v-20.161zM763.165 322.874h-.508v20.161h.508v-20.161zM763.165 364.206h-.508v20.156h.508v-20.156zM763.165 343.543h-.508v20.156h.508v-20.156zM783.828 260.878h-.508v20.156h.508v-20.156zM783.828 240.21h-.508v20.156h.508V240.21zM783.828 322.874h-.508v20.161h.508v-20.161zM783.828 343.543h-.508v20.156h.508v-20.156zM783.828 281.542h-.508v20.161h.508v-20.161zM783.828 302.21h-.508v20.156h.508V302.21zM783.828-7.782h-.508v20.156h.508V-7.782zM783.828 33.55h-.508v20.156h.508V33.55zM783.828 12.886h-.508v20.161h.508v-20.16zM783.828 219.547h-.508v20.161h.508v-20.161zM783.828 74.882h-.508v20.156h.508V74.882zM783.828 116.214h-.508v20.161h.508v-20.161zM783.828 95.55h-.508v20.156h.508V95.55zM783.828 54.219h-.508v20.16h.508V54.22zM783.828 446.87h-.508v20.161h.508V446.87zM783.828 198.878h-.508v20.156h.508v-20.156zM783.828 157.546h-.508v20.156h.508v-20.156zM783.828 178.214h-.508v20.161h.508v-20.161zM783.828 364.206h-.508v20.156h.508v-20.156zM783.828 136.882h-.508v20.156h.508v-20.156zM783.828 405.538h-.508v20.156h.508v-20.156zM783.828 426.206h-.508v20.156h.508v-20.156zM783.828 384.875h-.508v20.161h.508v-20.161zM804.492 302.21h-.508v20.156h.508V302.21zM804.492 322.874h-.508v20.161h.508v-20.161zM804.492 33.55h-.508v20.156h.508V33.55zM804.492 281.542h-.508v20.161h.508v-20.161zM804.492 260.878h-.508v20.156h.508v-20.156zM804.492 240.21h-.508v20.156h.508V240.21zM804.492 343.543h-.508v20.156h.508v-20.156zM804.492 219.547h-.508v20.161h.508v-20.161zM804.492 426.206h-.508v20.156h.508v-20.156zM804.492 405.538h-.508v20.156h.508v-20.156zM804.492 364.206h-.508v20.156h.508v-20.156zM804.492 384.875h-.508v20.161h.508v-20.161zM804.492 12.886h-.508v20.161h.508v-20.16zM804.492 157.546h-.508v20.156h.508v-20.156zM804.492 136.882h-.508v20.156h.508v-20.156zM804.492 54.219h-.508v20.16h.508V54.22zM804.492 74.882h-.508v20.156h.508V74.882zM804.492 116.214h-.508v20.161h.508v-20.161zM804.492 95.55h-.508v20.156h.508V95.55zM804.492 178.214h-.508v20.161h.508v-20.161zM804.492 446.87h-.508v20.161h.508V446.87zM804.492-7.782h-.508v20.156h.508V-7.782zM804.492 198.878h-.508v20.156h.508v-20.156zM825.16-7.782h-.508v20.156h.508V-7.782zM825.16 446.87h-.508v20.161h.508V446.87zM825.16 12.886h-.508v20.161h.508v-20.16zM825.16 426.206h-.508v20.156h.508v-20.156zM825.16 198.878h-.508v20.156h.508v-20.156zM825.16 178.214h-.508v20.161h.508v-20.161zM825.16 116.214h-.508v20.161h.508v-20.161zM825.16 54.219h-.508v20.16h.508V54.22zM825.16 157.546h-.508v20.156h.508v-20.156zM825.16 136.882h-.508v20.156h.508v-20.156zM825.16 74.882h-.508v20.156h.508V74.882zM825.16 33.55h-.508v20.156h.508V33.55zM825.16 405.538h-.508v20.156h.508v-20.156zM825.16 95.55h-.508v20.156h.508V95.55zM825.16 281.542h-.508v20.161h.508v-20.161zM825.16 364.206h-.508v20.156h.508v-20.156zM825.16 322.874h-.508v20.161h.508v-20.161zM825.16 384.875h-.508v20.161h.508v-20.161zM825.16 343.543h-.508v20.156h.508v-20.156zM825.16 302.21h-.508v20.156h.508V302.21zM825.16 219.547h-.508v20.161h.508v-20.161zM825.16 240.21h-.508v20.156h.508V240.21zM825.16 260.878h-.508v20.156h.508v-20.156zM845.823 12.886h-.508v20.161h.508v-20.16zM845.823 426.206h-.508v20.156h.508v-20.156zM845.823 405.538h-.508v20.156h.508v-20.156zM845.823 178.214h-.508v20.161h.508v-20.161zM845.823 157.546h-.508v20.156h.508v-20.156zM845.823 116.214h-.508v20.161h.508v-20.161zM845.823 74.882h-.508v20.156h.508V74.882zM845.823 136.882h-.508v20.156h.508v-20.156zM845.823-7.782h-.508v20.156h.508V-7.782zM845.823 95.55h-.508v20.156h.508V95.55zM845.823 302.21h-.508v20.156h.508V302.21zM845.823 54.219h-.508v20.16h.508V54.22zM845.823 384.875h-.508v20.161h.508v-20.161zM845.823 446.87h-.508v20.161h.508V446.87zM845.823 281.542h-.508v20.161h.508v-20.161zM845.823 364.206h-.508v20.156h.508v-20.156zM845.823 322.874h-.508v20.161h.508v-20.161zM845.823 343.543h-.508v20.156h.508v-20.156zM845.823 33.55h-.508v20.156h.508V33.55zM845.823 198.878h-.508v20.156h.508v-20.156zM845.823 219.547h-.508v20.161h.508v-20.161zM845.823 240.21h-.508v20.156h.508V240.21zM845.823 260.878h-.508v20.156h.508v-20.156zM866.493 157.546h-.508v20.156h.508v-20.156zM866.493 74.882h-.508v20.156h.508V74.882zM866.493 116.214h-.508v20.161h.508v-20.161zM866.493 426.206h-.508v20.156h.508v-20.156zM866.493 446.87h-.508v20.161h.508V446.87zM866.493 95.55h-.508v20.156h.508V95.55zM866.493 136.882h-.508v20.156h.508v-20.156zM866.493 405.538h-.508v20.156h.508v-20.156zM866.493 240.21h-.508v20.156h.508V240.21zM866.493 384.875h-.508v20.161h.508v-20.161zM866.493 219.547h-.508v20.161h.508v-20.161zM866.493 322.874h-.508v20.161h.508v-20.161zM866.493 281.542h-.508v20.161h.508v-20.161zM866.493 302.21h-.508v20.156h.508V302.21zM866.493 260.878h-.508v20.156h.508v-20.156zM866.493-7.782h-.508v20.156h.508V-7.782zM866.493 198.878h-.508v20.156h.508v-20.156zM866.493 178.214h-.508v20.161h.508v-20.161zM866.493 12.886h-.508v20.161h.508v-20.16zM866.493 33.55h-.508v20.156h.508V33.55zM866.493 364.206h-.508v20.156h.508v-20.156zM866.493 343.543h-.508v20.156h.508v-20.156zM866.493 54.219h-.508v20.16h.508V54.22zM887.156 405.538h-.508v20.156h.508v-20.156zM887.156 302.21h-.508v20.156h.508V302.21zM887.156 322.874h-.508v20.161h.508v-20.161zM887.156 426.206h-.508v20.156h.508v-20.156zM887.156 54.219h-.508v20.16h.508V54.22zM887.156-7.782h-.508v20.156h.508V-7.782zM887.156 74.882h-.508v20.156h.508V74.882zM887.156 219.547h-.508v20.161h.508v-20.161zM887.156 178.214h-.508v20.161h.508v-20.161zM887.156 240.21h-.508v20.156h.508V240.21zM887.156 95.55h-.508v20.156h.508V95.55zM887.156 198.878h-.508v20.156h.508v-20.156zM887.156 157.546h-.508v20.156h.508v-20.156zM887.156 116.214h-.508v20.161h.508v-20.161zM887.156 364.206h-.508v20.156h.508v-20.156zM887.156 446.87h-.508v20.161h.508V446.87zM887.156 136.882h-.508v20.156h.508v-20.156zM887.156 260.878h-.508v20.156h.508v-20.156zM887.156 281.542h-.508v20.161h.508v-20.161zM887.156 12.886h-.508v20.161h.508v-20.16zM887.156 384.875h-.508v20.161h.508v-20.161zM887.156 33.55h-.508v20.156h.508V33.55zM887.156 343.543h-.508v20.156h.508v-20.156zM907.824 446.87h-.508v20.161h.508V446.87zM907.824 54.219h-.508v20.16h.508V54.22zM907.824 426.206h-.508v20.156h.508v-20.156zM907.824 322.874h-.508v20.161h.508v-20.161zM907.824 302.21h-.508v20.156h.508V302.21zM907.824 240.21h-.508v20.156h.508V240.21zM907.824 384.875h-.508v20.161h.508v-20.161zM907.824 260.878h-.508v20.156h.508v-20.156zM907.824 281.542h-.508v20.161h.508v-20.161zM907.824 33.55h-.508v20.156h.508V33.55zM907.824 157.546h-.508v20.156h.508v-20.156zM907.824 178.214h-.508v20.161h.508v-20.161zM907.824 198.878h-.508v20.156h.508v-20.156zM907.824 74.882h-.508v20.156h.508V74.882zM907.824 95.55h-.508v20.156h.508V95.55zM907.824 12.886h-.508v20.161h.508v-20.16zM907.824 364.206h-.508v20.156h.508v-20.156zM907.824 343.543h-.508v20.156h.508v-20.156zM907.824-7.782h-.508v20.156h.508V-7.782zM907.824 405.538h-.508v20.156h.508v-20.156zM907.824 219.547h-.508v20.161h.508v-20.161zM907.824 136.882h-.508v20.156h.508v-20.156zM907.824 116.214h-.508v20.161h.508v-20.161zM928.487 446.87h-.508v20.161h.508V446.87zM928.487 95.55h-.508v20.156h.508V95.55zM928.487 74.882h-.508v20.156h.508V74.882zM928.487-7.782h-.508v20.156h.508V-7.782zM928.487 343.543h-.508v20.156h.508v-20.156zM928.487 405.538h-.508v20.156h.508v-20.156zM928.487 136.882h-.508v20.156h.508v-20.156zM928.487 157.546h-.508v20.156h.508v-20.156zM928.487 178.214h-.508v20.161h.508v-20.161zM928.487 260.878h-.508v20.156h.508v-20.156zM928.487 12.886h-.508v20.161h.508v-20.16zM928.487 426.206h-.508v20.156h.508v-20.156zM928.487 322.874h-.508v20.161h.508v-20.161zM928.487 198.878h-.508v20.156h.508v-20.156zM928.487 116.214h-.508v20.161h.508v-20.161zM928.487 384.875h-.508v20.161h.508v-20.161zM928.487 33.55h-.508v20.156h.508V33.55zM928.487 54.219h-.508v20.16h.508V54.22zM928.487 364.206h-.508v20.156h.508v-20.156zM928.487 281.542h-.508v20.161h.508v-20.161zM928.487 240.21h-.508v20.156h.508V240.21zM928.487 219.547h-.508v20.161h.508v-20.161zM928.487 302.21h-.508v20.156h.508V302.21zM949.156 198.878h-.508v20.156h.508v-20.156zM949.156 364.206h-.508v20.156h.508v-20.156zM949.156 157.546h-.508v20.156h.508v-20.156zM949.156 95.55h-.508v20.156h.508V95.55zM949.156 178.214h-.508v20.161h.508v-20.161zM949.156 54.219h-.508v20.16h.508V54.22zM949.156 219.547h-.508v20.161h.508v-20.161zM949.156 405.538h-.508v20.156h.508v-20.156zM949.156 343.543h-.508v20.156h.508v-20.156zM949.156 240.21h-.508v20.156h.508V240.21zM949.156 74.882h-.508v20.156h.508V74.882zM949.156 384.875h-.508v20.161h.508v-20.161zM949.156 260.878h-.508v20.156h.508v-20.156zM949.156 281.542h-.508v20.161h.508v-20.161zM949.156 302.21h-.508v20.156h.508V302.21zM949.156 426.206h-.508v20.156h.508v-20.156zM949.156-7.782h-.508v20.156h.508V-7.782zM949.156 12.886h-.508v20.161h.508v-20.16zM949.156 116.214h-.508v20.161h.508v-20.161zM949.156 446.87h-.508v20.161h.508V446.87zM949.156 322.874h-.508v20.161h.508v-20.161zM949.156 33.55h-.508v20.156h.508V33.55zM949.156 136.882h-.508v20.156h.508v-20.156zM969.82 116.214h-.508v20.161h.508v-20.161zM969.82-7.782h-.508v20.156h.508V-7.782zM969.82 33.55h-.508v20.156h.508V33.55zM969.82 54.219h-.508v20.16h.508V54.22zM969.82 12.886h-.508v20.161h.508v-20.16zM969.82 136.882h-.508v20.156h.508v-20.156zM969.82 384.875h-.508v20.161h.508v-20.161zM969.82 302.21h-.508v20.156h.508V302.21zM969.82 178.214h-.508v20.161h.508v-20.161zM969.82 322.874h-.508v20.161h.508v-20.161zM969.82 281.542h-.508v20.161h.508v-20.161zM969.82 95.55h-.508v20.156h.508V95.55zM969.82 240.21h-.508v20.156h.508V240.21zM969.82 157.546h-.508v20.156h.508v-20.156zM969.82 426.206h-.508v20.156h.508v-20.156zM969.82 260.878h-.508v20.156h.508v-20.156zM969.82 198.878h-.508v20.156h.508v-20.156zM969.82 219.547h-.508v20.161h.508v-20.161zM969.82 446.87h-.508v20.161h.508V446.87zM969.82 74.882h-.508v20.156h.508V74.882zM969.82 343.543h-.508v20.156h.508v-20.156zM969.82 405.538h-.508v20.156h.508v-20.156zM969.82 364.206h-.508v20.156h.508v-20.156zM990.488 322.874h-.508v20.161h.508v-20.161zM990.488 384.875h-.508v20.161h.508v-20.161zM990.488 343.543h-.508v20.156h.508v-20.156zM990.488-7.782h-.508v20.156h.508V-7.782zM990.488 405.538h-.508v20.156h.508v-20.156zM990.488 426.206h-.508v20.156h.508v-20.156zM990.488 157.546h-.508v20.156h.508v-20.156zM990.488 12.886h-.508v20.161h.508v-20.16zM990.488 54.219h-.508v20.16h.508V54.22zM990.488 260.878h-.508v20.156h.508v-20.156zM990.488 178.214h-.508v20.161h.508v-20.161zM990.488 198.878h-.508v20.156h.508v-20.156zM990.488 33.55h-.508v20.156h.508V33.55zM990.488 219.547h-.508v20.161h.508v-20.161zM990.488 281.542h-.508v20.161h.508v-20.161zM990.488 364.206h-.508v20.156h.508v-20.156zM990.488 446.87h-.508v20.161h.508V446.87zM990.488 74.882h-.508v20.156h.508V74.882zM990.488 95.55h-.508v20.156h.508V95.55zM990.488 136.882h-.508v20.156h.508v-20.156zM990.488 116.214h-.508v20.161h.508v-20.161zM990.488 240.21h-.508v20.156h.508V240.21zM990.488 302.21h-.508v20.156h.508V302.21zM1011.15 12.886h-.51v20.161h.51v-20.16zM1011.15 116.214h-.51v20.161h.51v-20.161zM1011.15-7.782h-.51v20.156h.51V-7.782zM1011.15 302.21h-.51v20.156h.51V302.21zM1011.15 384.875h-.51v20.161h.51v-20.161zM1011.15 74.882h-.51v20.156h.51V74.882zM1011.15 33.55h-.51v20.156h.51V33.55zM1011.15 240.21h-.51v20.156h.51V240.21zM1011.15 343.543h-.51v20.156h.51v-20.156zM1011.15 219.547h-.51v20.161h.51v-20.161zM1011.15 405.538h-.51v20.156h.51v-20.156zM1011.15 54.219h-.51v20.16h.51V54.22zM1011.15 198.878h-.51v20.156h.51v-20.156zM1011.15 364.206h-.51v20.156h.51v-20.156zM1011.15 260.878h-.51v20.156h.51v-20.156zM1011.15 426.206h-.51v20.156h.51v-20.156zM1011.15 157.546h-.51v20.156h.51v-20.156zM1011.15 322.874h-.51v20.161h.51v-20.161zM1011.15 136.882h-.51v20.156h.51v-20.156zM1011.15 95.55h-.51v20.156h.51V95.55zM1011.15 281.542h-.51v20.161h.51v-20.161zM1011.15 178.214h-.51v20.161h.51v-20.161zM1011.15 446.87h-.51v20.161h.51V446.87zM1031.82 12.886h-.51v20.161h.51v-20.16zM1031.82 74.882h-.51v20.156h.51V74.882zM1031.82 405.538h-.51v20.156h.51v-20.156zM1031.82 95.55h-.51v20.156h.51V95.55zM1031.82 426.206h-.51v20.156h.51v-20.156zM1031.82 219.547h-.51v20.161h.51v-20.161zM1031.82 322.874h-.51v20.161h.51v-20.161zM1031.82 343.543h-.51v20.156h.51v-20.156zM1031.82 260.878h-.51v20.156h.51v-20.156zM1031.82 178.214h-.51v20.161h.51v-20.161zM1031.82 116.214h-.51v20.161h.51v-20.161zM1031.82 157.546h-.51v20.156h.51v-20.156zM1031.82 302.21h-.51v20.156h.51V302.21zM1031.82 136.882h-.51v20.156h.51v-20.156zM1031.82 281.542h-.51v20.161h.51v-20.161zM1031.82 198.878h-.51v20.156h.51v-20.156zM1031.82 54.219h-.51v20.16h.51V54.22zM1031.82 384.875h-.51v20.161h.51v-20.161zM1031.82-7.782h-.51v20.156h.51V-7.782zM1031.82 446.87h-.51v20.161h.51V446.87zM1031.82 33.55h-.51v20.156h.51V33.55zM1031.82 240.21h-.51v20.156h.51V240.21zM1031.82 364.206h-.51v20.156h.51v-20.156zM1052.48 384.875h-.5v20.161h.5v-20.161zM1052.48 136.882h-.5v20.156h.5v-20.156zM1052.48 446.87h-.5v20.161h.5V446.87zM1052.48 157.546h-.5v20.156h.5v-20.156zM1052.48 74.882h-.5v20.156h.5V74.882zM1052.48 405.538h-.5v20.156h.5v-20.156zM1052.48-7.782h-.5v20.156h.5V-7.782zM1052.48 281.542h-.5v20.161h.5v-20.161zM1052.48 95.55h-.5v20.156h.5V95.55zM1052.48 322.874h-.5v20.161h.5v-20.161zM1052.48 54.219h-.5v20.16h.5V54.22zM1052.48 426.206h-.5v20.156h.5v-20.156zM1052.48 364.206h-.5v20.156h.5v-20.156zM1052.48 33.55h-.5v20.156h.5V33.55zM1052.48 343.543h-.5v20.156h.5v-20.156zM1052.48 12.886h-.5v20.161h.5v-20.16zM1052.48 302.21h-.5v20.156h.5V302.21zM1052.48 116.214h-.5v20.161h.5v-20.161zM1052.48 260.878h-.5v20.156h.5v-20.156zM1052.48 178.214h-.5v20.161h.5v-20.161zM1052.48 198.878h-.5v20.156h.5v-20.156zM1052.48 219.547h-.5v20.161h.5v-20.161zM1052.48 240.21h-.5v20.156h.5V240.21zM1073.15 54.219h-.51v20.16h.51V54.22zM1073.15 136.882h-.51v20.156h.51v-20.156zM1073.15 364.206h-.51v20.156h.51v-20.156zM1073.15-7.782h-.51v20.156h.51V-7.782zM1073.15 322.874h-.51v20.161h.51v-20.161zM1073.15 281.542h-.51v20.161h.51v-20.161zM1073.15 198.878h-.51v20.156h.51v-20.156zM1073.15 33.55h-.51v20.156h.51V33.55zM1073.15 240.21h-.51v20.156h.51V240.21zM1073.15 12.886h-.51v20.161h.51v-20.16zM1073.15 74.882h-.51v20.156h.51V74.882zM1073.15 219.547h-.51v20.161h.51v-20.161zM1073.15 95.55h-.51v20.156h.51V95.55zM1073.15 426.206h-.51v20.156h.51v-20.156zM1073.15 446.87h-.51v20.161h.51V446.87zM1073.15 260.878h-.51v20.156h.51v-20.156zM1073.15 157.546h-.51v20.156h.51v-20.156zM1073.15 343.543h-.51v20.156h.51v-20.156zM1073.15 405.538h-.51v20.156h.51v-20.156zM1073.15 178.214h-.51v20.161h.51v-20.161zM1073.15 302.21h-.51v20.156h.51V302.21zM1073.15 384.875h-.51v20.161h.51v-20.161zM1073.15 116.214h-.51v20.161h.51v-20.161zM1093.82 33.55h-.51v20.156h.51V33.55zM1093.82 405.538h-.51v20.156h.51v-20.156zM1093.82 157.546h-.51v20.156h.51v-20.156zM1093.82 54.219h-.51v20.16h.51V54.22zM1093.82 446.87h-.51v20.161h.51V446.87zM1093.82 95.55h-.51v20.156h.51V95.55zM1093.82 240.21h-.51v20.156h.51V240.21zM1093.82 343.543h-.51v20.156h.51v-20.156zM1093.82 384.875h-.51v20.161h.51v-20.161zM1093.82 116.214h-.51v20.161h.51v-20.161zM1093.82 198.878h-.51v20.156h.51v-20.156zM1093.82 364.206h-.51v20.156h.51v-20.156zM1093.82 219.547h-.51v20.161h.51v-20.161zM1093.82 281.542h-.51v20.161h.51v-20.161zM1093.82 136.882h-.51v20.156h.51v-20.156zM1093.82-7.782h-.51v20.156h.51V-7.782zM1093.82 322.874h-.51v20.161h.51v-20.161zM1093.82 260.878h-.51v20.156h.51v-20.156zM1093.82 74.882h-.51v20.156h.51V74.882zM1093.82 12.886h-.51v20.161h.51v-20.16zM1093.82 178.214h-.51v20.161h.51v-20.161zM1093.82 426.206h-.51v20.156h.51v-20.156zM1093.82 302.21h-.51v20.156h.51V302.21zM1114.48 322.874h-.5v20.161h.5v-20.161zM1114.48 260.878h-.5v20.156h.5v-20.156zM1114.48 74.882h-.5v20.156h.5V74.882zM1114.48 446.87h-.5v20.161h.5V446.87zM1114.48 54.219h-.5v20.16h.5V54.22zM1114.48 95.55h-.5v20.156h.5V95.55zM1114.48-7.782h-.5v20.156h.5V-7.782zM1114.48 302.21h-.5v20.156h.5V302.21zM1114.48 384.875h-.5v20.161h.5v-20.161zM1114.48 116.214h-.5v20.161h.5v-20.161zM1114.48 364.206h-.5v20.156h.5v-20.156zM1114.48 198.878h-.5v20.156h.5v-20.156zM1114.48 343.543h-.5v20.156h.5v-20.156zM1114.48 178.214h-.5v20.161h.5v-20.161zM1114.48 157.546h-.5v20.156h.5v-20.156zM1114.48 426.206h-.5v20.156h.5v-20.156zM1114.48 240.21h-.5v20.156h.5V240.21zM1114.48 136.882h-.5v20.156h.5v-20.156zM1114.48 405.538h-.5v20.156h.5v-20.156zM1114.48 281.542h-.5v20.161h.5v-20.161zM1114.48 33.55h-.5v20.156h.5V33.55zM1114.48 12.886h-.5v20.161h.5v-20.16zM1114.48 219.547h-.5v20.161h.5v-20.161zM1135.15 446.87h-.51v20.161h.51V446.87zM1135.15 157.546h-.51v20.156h.51v-20.156zM1135.15 54.219h-.51v20.16h.51V54.22zM1135.15 136.882h-.51v20.156h.51v-20.156zM1135.15 198.878h-.51v20.156h.51v-20.156zM1135.15 260.878h-.51v20.156h.51v-20.156zM1135.15 302.21h-.51v20.156h.51V302.21zM1135.15 281.542h-.51v20.161h.51v-20.161zM1135.15 33.55h-.51v20.156h.51V33.55zM1135.15 12.886h-.51v20.161h.51v-20.16zM1135.15 219.547h-.51v20.161h.51v-20.161zM1135.15 426.206h-.51v20.156h.51v-20.156zM1135.15 240.21h-.51v20.156h.51V240.21zM1135.15 405.538h-.51v20.156h.51v-20.156zM1135.15 384.875h-.51v20.161h.51v-20.161zM1135.15 343.543h-.51v20.156h.51v-20.156zM1135.15-7.782h-.51v20.156h.51V-7.782zM1135.15 364.206h-.51v20.156h.51v-20.156zM1135.15 178.214h-.51v20.161h.51v-20.161zM1135.15 95.55h-.51v20.156h.51V95.55zM1135.15 322.874h-.51v20.161h.51v-20.161zM1135.15 74.882h-.51v20.156h.51V74.882zM1135.15 116.214h-.51v20.161h.51v-20.161z"/>
        <path opacity=".24" d="M907.316 12.38h-20.161v.506h20.161v-.507zM886.653 12.38h-20.161v.506h20.161v-.507zM865.979 12.38h-20.156v.506h20.156v-.507zM845.321 12.38H825.16v.506h20.161v-.507zM927.985 12.38h-20.161v.506h20.161v-.507zM989.98 12.38h-20.161v.506h20.161v-.507zM824.653 12.38h-20.161v.506h20.161v-.507zM1010.65 12.38h-20.163v.506h20.163v-.507zM948.643 12.38h-20.156v.506h20.156v-.507zM721.325 12.38h-20.161v.506h20.161v-.507zM969.317 12.38h-20.161v.506h20.161v-.507zM1051.98 12.38h-20.16v.506h20.16v-.507zM1134.65 12.38h-20.17v.506h20.17v-.507zM741.988 12.38h-20.161v.506h20.161v-.507zM1031.31 12.38h-20.16v.506h20.16v-.507zM1093.31 12.38h-20.16v.506h20.16v-.507zM762.657 12.38h-20.161v.506h20.161v-.507zM700.657 12.38h-20.156v.506h20.156v-.507zM1113.97 12.38h-20.16v.506h20.16v-.507zM803.989 12.38h-20.161v.506h20.161v-.507zM1072.65 12.38h-20.17v.506h20.17v-.507zM783.321 12.38h-20.156v.506h20.156v-.507zM679.993 12.38h-20.161v.506h20.161v-.507z"/>
        <path opacity=".24" d="M659.833 12.38h-.254v.506h.254v-.507zM680.501 12.38h-.508v.506h.508v-.507zM701.164 12.38h-.508v.506h.508v-.507zM721.828 12.38h-.508v.506h.508v-.507zM742.497 12.38h-.508v.506h.508v-.507zM763.165 12.38h-.508v.506h.508v-.507zM783.828 12.38h-.508v.506h.508v-.507zM804.492 12.38h-.508v.506h.508v-.507zM825.16 12.38h-.508v.506h.508v-.507zM845.823 12.38h-.508v.506h.508v-.507zM866.493 12.38h-.508v.506h.508v-.507zM887.156 12.38h-.508v.506h.508v-.507zM907.824 12.38h-.508v.506h.508v-.507zM928.487 12.38h-.508v.506h.508v-.507zM949.156 12.38h-.508v.506h.508v-.507zM969.82 12.38h-.508v.506h.508v-.507zM990.488 12.38h-.508v.506h.508v-.507zM1011.15 12.38h-.51v.506h.51v-.507zM1031.82 12.38h-.51v.506h.51v-.507zM1052.48 12.38h-.5v.506h.5v-.507zM1073.15 12.38h-.51v.506h.51v-.507zM1093.82 12.38h-.51v.506h.51v-.507zM1114.48 12.38h-.5v.506h.5v-.507zM1135.15 12.38h-.51v.506h.51v-.507zM1113.97 33.043h-20.16v.507h20.16v-.507zM824.653 33.043h-20.161v.507h20.161v-.507zM1134.65 33.043h-20.17v.507h20.17v-.507zM679.993 33.043h-20.161v.507h20.161v-.507zM1093.31 33.043h-20.16v.507h20.16v-.507zM700.657 33.043h-20.156v.507h20.156v-.507zM762.657 33.043h-20.161v.507h20.161v-.507zM865.979 33.043h-20.156v.507h20.156v-.507zM845.321 33.043H825.16v.507h20.161v-.507zM721.325 33.043h-20.161v.507h20.161v-.507zM741.988 33.043h-20.161v.507h20.161v-.507zM1072.65 33.043h-20.17v.507h20.17v-.507zM1031.31 33.043h-20.16v.507h20.16v-.507zM989.98 33.043h-20.161v.507h20.161v-.507zM1010.65 33.043h-20.163v.507h20.163v-.507zM1051.98 33.043h-20.16v.507h20.16v-.507zM927.985 33.043h-20.161v.507h20.161v-.507zM907.316 33.043h-20.161v.507h20.161v-.507zM886.653 33.043h-20.161v.507h20.161v-.507zM948.643 33.043h-20.156v.507h20.156v-.507zM969.317 33.043h-20.161v.507h20.161v-.507zM803.989 33.043h-20.161v.507h20.161v-.507zM783.321 33.043h-20.156v.507h20.156v-.507z"/>
        <path opacity=".24" d="M659.833 33.043h-.254v.507h.254v-.507zM680.501 33.043h-.508v.507h.508v-.507zM701.164 33.043h-.508v.507h.508v-.507zM721.828 33.043h-.508v.507h.508v-.507zM742.497 33.043h-.508v.507h.508v-.507zM763.165 33.043h-.508v.507h.508v-.507zM783.828 33.043h-.508v.507h.508v-.507zM804.492 33.043h-.508v.507h.508v-.507zM825.16 33.043h-.508v.507h.508v-.507zM845.823 33.043h-.508v.507h.508v-.507zM866.493 33.043h-.508v.507h.508v-.507zM887.156 33.043h-.508v.507h.508v-.507zM907.824 33.043h-.508v.507h.508v-.507zM928.487 33.043h-.508v.507h.508v-.507zM949.156 33.043h-.508v.507h.508v-.507zM969.82 33.043h-.508v.507h.508v-.507zM990.488 33.043h-.508v.507h.508v-.507zM1011.15 33.043h-.51v.507h.51v-.507zM1031.82 33.043h-.51v.507h.51v-.507zM1052.48 33.043h-.5v.507h.5v-.507zM1073.15 33.043h-.51v.507h.51v-.507zM1093.82 33.043h-.51v.507h.51v-.507zM1114.48 33.043h-.5v.507h.5v-.507zM1135.15 33.043h-.51v.507h.51v-.507zM845.321 53.711H825.16v.508h20.161v-.508zM741.988 53.711h-20.161v.508h20.161v-.508zM969.317 53.711h-20.161v.508h20.161v-.508zM700.657 53.711h-20.156v.508h20.156v-.508zM721.325 53.711h-20.161v.508h20.161v-.508zM1134.65 53.711h-20.17v.508h20.17v-.508zM927.985 53.711h-20.161v.508h20.161v-.508zM762.657 53.711h-20.161v.508h20.161v-.508zM948.643 53.711h-20.156v.508h20.156v-.508zM803.989 53.711h-20.161v.508h20.161v-.508zM824.653 53.711h-20.161v.508h20.161v-.508zM1072.65 53.711h-20.17v.508h20.17v-.508zM989.98 53.711h-20.161v.508h20.161v-.508zM783.321 53.711h-20.156v.508h20.156v-.508zM1051.98 53.711h-20.16v.508h20.16v-.508zM1093.31 53.711h-20.16v.508h20.16v-.508zM865.979 53.711h-20.156v.508h20.156v-.508zM1113.97 53.711h-20.16v.508h20.16v-.508zM886.653 53.711h-20.161v.508h20.161v-.508zM1031.31 53.711h-20.16v.508h20.16v-.508zM907.316 53.711h-20.161v.508h20.161v-.508zM679.993 53.711h-20.161v.508h20.161v-.508zM1010.65 53.711h-20.163v.508h20.163v-.508z"/>
        <path opacity=".24" d="M659.833 53.711h-.254v.508h.254v-.508zM680.501 53.711h-.508v.508h.508v-.508zM701.164 53.711h-.508v.508h.508v-.508zM721.828 53.711h-.508v.508h.508v-.508zM742.497 53.711h-.508v.508h.508v-.508zM763.165 53.711h-.508v.508h.508v-.508zM783.828 53.711h-.508v.508h.508v-.508zM804.492 53.711h-.508v.508h.508v-.508zM825.16 53.711h-.508v.508h.508v-.508zM845.823 53.711h-.508v.508h.508v-.508zM866.493 53.711h-.508v.508h.508v-.508zM887.156 53.711h-.508v.508h.508v-.508zM907.824 53.711h-.508v.508h.508v-.508zM928.487 53.711h-.508v.508h.508v-.508zM949.156 53.711h-.508v.508h.508v-.508zM969.82 53.711h-.508v.508h.508v-.508zM990.488 53.711h-.508v.508h.508v-.508zM1011.15 53.711h-.51v.508h.51v-.508zM1031.82 53.711h-.51v.508h.51v-.508zM1052.48 53.711h-.5v.508h.5v-.508zM1073.15 53.711h-.51v.508h.51v-.508zM1093.82 53.711h-.51v.508h.51v-.508zM1114.48 53.711h-.5v.508h.5v-.508zM1135.15 53.711h-.51v.508h.51v-.508zM721.325 74.374h-20.161v.508h20.161v-.508zM886.653 74.374h-20.161v.508h20.161v-.508zM969.317 74.374h-20.161v.508h20.161v-.508zM989.98 74.374h-20.161v.508h20.161v-.508zM865.979 74.374h-20.156v.508h20.156v-.508zM907.316 74.374h-20.161v.508h20.161v-.508zM1010.65 74.374h-20.163v.508h20.163v-.508zM927.985 74.374h-20.161v.508h20.161v-.508zM948.643 74.374h-20.156v.508h20.156v-.508zM824.653 74.374h-20.161v.508h20.161v-.508zM845.321 74.374H825.16v.508h20.161v-.508zM700.657 74.374h-20.156v.508h20.156v-.508zM803.989 74.374h-20.161v.508h20.161v-.508zM1031.31 74.374h-20.16v.508h20.16v-.508zM783.321 74.374h-20.156v.508h20.156v-.508zM741.988 74.374h-20.161v.508h20.161v-.508zM679.993 74.374h-20.161v.508h20.161v-.508zM762.657 74.374h-20.161v.508h20.161v-.508zM1113.97 74.374h-20.16v.508h20.16v-.508zM1093.31 74.374h-20.16v.508h20.16v-.508zM1051.98 74.374h-20.16v.508h20.16v-.508zM1134.65 74.374h-20.17v.508h20.17v-.508zM1072.65 74.374h-20.17v.508h20.17v-.508z"/>
        <path opacity=".24" d="M659.833 74.374h-.254v.508h.254v-.508zM680.501 74.374h-.508v.508h.508v-.508zM701.164 74.374h-.508v.508h.508v-.508zM721.828 74.374h-.508v.508h.508v-.508zM742.497 74.374h-.508v.508h.508v-.508zM763.165 74.374h-.508v.508h.508v-.508zM783.828 74.374h-.508v.508h.508v-.508zM804.492 74.374h-.508v.508h.508v-.508zM825.16 74.374h-.508v.508h.508v-.508zM845.823 74.374h-.508v.508h.508v-.508zM866.493 74.374h-.508v.508h.508v-.508zM887.156 74.374h-.508v.508h.508v-.508zM907.824 74.374h-.508v.508h.508v-.508zM928.487 74.374h-.508v.508h.508v-.508zM949.156 74.374h-.508v.508h.508v-.508zM969.82 74.374h-.508v.508h.508v-.508zM990.488 74.374h-.508v.508h.508v-.508zM1011.15 74.374h-.51v.508h.51v-.508zM1031.82 74.374h-.51v.508h.51v-.508zM1052.48 74.374h-.5v.508h.5v-.508zM1073.15 74.374h-.51v.508h.51v-.508zM1093.82 74.374h-.51v.508h.51v-.508zM1114.48 74.374h-.5v.508h.5v-.508zM1135.15 74.374h-.51v.508h.51v-.508zM948.643 95.043h-20.156v.508h20.156v-.508zM865.979 95.043h-20.156v.508h20.156v-.508zM969.317 95.043h-20.161v.508h20.161v-.508zM741.988 95.043h-20.161v.508h20.161v-.508zM1010.65 95.043h-20.163v.508h20.163v-.508zM679.993 95.043h-20.161v.508h20.161v-.508zM989.98 95.043h-20.161v.508h20.161v-.508zM762.657 95.043h-20.161v.508h20.161v-.508zM927.985 95.043h-20.161v.508h20.161v-.508zM824.653 95.043h-20.161v.508h20.161v-.508zM907.316 95.043h-20.161v.508h20.161v-.508zM721.325 95.043h-20.161v.508h20.161v-.508zM1093.31 95.043h-20.16v.508h20.16v-.508zM1113.97 95.043h-20.16v.508h20.16v-.508zM1072.65 95.043h-20.17v.508h20.17v-.508zM783.321 95.043h-20.156v.508h20.156v-.508zM886.653 95.043h-20.161v.508h20.161v-.508zM1134.65 95.043h-20.17v.508h20.17v-.508zM700.657 95.043h-20.156v.508h20.156v-.508zM1031.31 95.043h-20.16v.508h20.16v-.508zM845.321 95.043H825.16v.508h20.161v-.508zM1051.98 95.043h-20.16v.508h20.16v-.508zM803.989 95.043h-20.161v.508h20.161v-.508z"/>
        <path opacity=".24" d="M659.833 95.043h-.254v.508h.254v-.508zM680.501 95.043h-.508v.508h.508v-.508zM701.164 95.043h-.508v.508h.508v-.508zM721.828 95.043h-.508v.508h.508v-.508zM742.497 95.043h-.508v.508h.508v-.508zM763.165 95.043h-.508v.508h.508v-.508zM783.828 95.043h-.508v.508h.508v-.508zM804.492 95.043h-.508v.508h.508v-.508zM825.16 95.043h-.508v.508h.508v-.508zM845.823 95.043h-.508v.508h.508v-.508zM866.493 95.043h-.508v.508h.508v-.508zM887.156 95.043h-.508v.508h.508v-.508zM907.824 95.043h-.508v.508h.508v-.508zM928.487 95.043h-.508v.508h.508v-.508zM949.156 95.043h-.508v.508h.508v-.508zM969.82 95.043h-.508v.508h.508v-.508zM990.488 95.043h-.508v.508h.508v-.508zM1011.15 95.043h-.51v.508h.51v-.508zM1031.82 95.043h-.51v.508h.51v-.508zM1052.48 95.043h-.5v.508h.5v-.508zM1073.15 95.043h-.51v.508h.51v-.508zM1093.82 95.043h-.51v.508h.51v-.508zM1114.48 95.043h-.5v.508h.5v-.508zM1135.15 95.043h-.51v.508h.51v-.508zM865.979 115.706h-20.156v.508h20.156v-.508zM762.657 115.706h-20.161v.508h20.161v-.508zM1051.98 115.706h-20.16v.508h20.16v-.508zM969.317 115.706h-20.161v.508h20.161v-.508zM700.657 115.706h-20.156v.508h20.156v-.508zM886.653 115.706h-20.161v.508h20.161v-.508zM824.653 115.706h-20.161v.508h20.161v-.508zM1093.31 115.706h-20.16v.508h20.16v-.508zM989.98 115.706h-20.161v.508h20.161v-.508zM803.989 115.706h-20.161v.508h20.161v-.508zM721.325 115.706h-20.161v.508h20.161v-.508zM948.643 115.706h-20.156v.508h20.156v-.508zM741.988 115.706h-20.161v.508h20.161v-.508zM907.316 115.706h-20.161v.508h20.161v-.508zM845.321 115.706H825.16v.508h20.161v-.508zM927.985 115.706h-20.161v.508h20.161v-.508zM1113.97 115.706h-20.16v.508h20.16v-.508zM1134.65 115.706h-20.17v.508h20.17v-.508zM783.321 115.706h-20.156v.508h20.156v-.508zM679.993 115.706h-20.161v.508h20.161v-.508zM1072.65 115.706h-20.17v.508h20.17v-.508zM1031.31 115.706h-20.16v.508h20.16v-.508zM1010.65 115.706h-20.163v.508h20.163v-.508z"/>
        <path opacity=".24" d="M659.833 115.706h-.254v.508h.254v-.508zM680.501 115.706h-.508v.508h.508v-.508zM701.164 115.706h-.508v.508h.508v-.508zM721.828 115.706h-.508v.508h.508v-.508zM742.497 115.706h-.508v.508h.508v-.508zM763.165 115.706h-.508v.508h.508v-.508zM783.828 115.706h-.508v.508h.508v-.508zM804.492 115.706h-.508v.508h.508v-.508zM825.16 115.706h-.508v.508h.508v-.508zM845.823 115.706h-.508v.508h.508v-.508zM866.493 115.706h-.508v.508h.508v-.508zM887.156 115.706h-.508v.508h.508v-.508zM907.824 115.706h-.508v.508h.508v-.508zM928.487 115.706h-.508v.508h.508v-.508zM949.156 115.706h-.508v.508h.508v-.508zM969.82 115.706h-.508v.508h.508v-.508zM990.488 115.706h-.508v.508h.508v-.508zM1011.15 115.706h-.51v.508h.51v-.508zM1031.82 115.706h-.51v.508h.51v-.508zM1052.48 115.706h-.5v.508h.5v-.508zM1073.15 115.706h-.51v.508h.51v-.508zM1093.82 115.706h-.51v.508h.51v-.508zM1114.48 115.706h-.5v.508h.5v-.508zM1135.15 115.706h-.51v.508h.51v-.508zM865.979 136.375h-20.156v.508h20.156v-.508zM721.325 136.375h-20.161v.508h20.161v-.508zM907.316 136.375h-20.161v.508h20.161v-.508zM1134.65 136.375h-20.17v.508h20.17v-.508zM700.657 136.375h-20.156v.508h20.156v-.508zM1113.97 136.375h-20.16v.508h20.16v-.508zM679.993 136.375h-20.161v.508h20.161v-.508zM1031.31 136.375h-20.16v.508h20.16v-.508zM1051.98 136.375h-20.16v.508h20.16v-.508zM824.653 136.375h-20.161v.508h20.161v-.508zM762.657 136.375h-20.161v.508h20.161v-.508zM989.98 136.375h-20.161v.508h20.161v-.508zM969.317 136.375h-20.161v.508h20.161v-.508zM803.989 136.375h-20.161v.508h20.161v-.508zM1010.65 136.375h-20.163v.508h20.163v-.508zM948.643 136.375h-20.156v.508h20.156v-.508zM845.321 136.375H825.16v.508h20.161v-.508zM1093.31 136.375h-20.16v.508h20.16v-.508zM886.653 136.375h-20.161v.508h20.161v-.508zM1072.65 136.375h-20.17v.508h20.17v-.508zM927.985 136.375h-20.161v.508h20.161v-.508zM741.988 136.375h-20.161v.508h20.161v-.508zM783.321 136.375h-20.156v.508h20.156v-.508z"/>
        <path opacity=".24" d="M659.833 136.375h-.254v.508h.254v-.508zM680.501 136.375h-.508v.508h.508v-.508zM701.164 136.375h-.508v.508h.508v-.508zM721.828 136.375h-.508v.508h.508v-.508zM742.497 136.375h-.508v.508h.508v-.508zM763.165 136.375h-.508v.508h.508v-.508zM783.828 136.375h-.508v.508h.508v-.508zM804.492 136.375h-.508v.508h.508v-.508zM825.16 136.375h-.508v.508h.508v-.508zM845.823 136.375h-.508v.508h.508v-.508zM866.493 136.375h-.508v.508h.508v-.508zM887.156 136.375h-.508v.508h.508v-.508zM907.824 136.375h-.508v.508h.508v-.508zM928.487 136.375h-.508v.508h.508v-.508zM949.156 136.375h-.508v.508h.508v-.508zM969.82 136.375h-.508v.508h.508v-.508zM990.488 136.375h-.508v.508h.508v-.508zM1011.15 136.375h-.51v.508h.51v-.508zM1031.82 136.375h-.51v.508h.51v-.508zM1052.48 136.375h-.5v.508h.5v-.508zM1073.15 136.375h-.51v.508h.51v-.508zM1093.82 136.375h-.51v.508h.51v-.508zM1114.48 136.375h-.5v.508h.5v-.508zM1135.15 136.375h-.51v.508h.51v-.508zM1051.98 157.038h-20.16v.508h20.16v-.508zM1134.65 157.038h-20.17v.508h20.17v-.508zM679.993 157.038h-20.161v.508h20.161v-.508zM927.985 157.038h-20.161v.508h20.161v-.508zM1072.65 157.038h-20.17v.508h20.17v-.508zM1093.31 157.038h-20.16v.508h20.16v-.508zM1113.97 157.038h-20.16v.508h20.16v-.508zM803.989 157.038h-20.161v.508h20.161v-.508zM741.988 157.038h-20.161v.508h20.161v-.508zM783.321 157.038h-20.156v.508h20.156v-.508zM762.657 157.038h-20.161v.508h20.161v-.508zM824.653 157.038h-20.161v.508h20.161v-.508zM969.317 157.038h-20.161v.508h20.161v-.508zM700.657 157.038h-20.156v.508h20.156v-.508zM989.98 157.038h-20.161v.508h20.161v-.508zM907.316 157.038h-20.161v.508h20.161v-.508zM845.321 157.038H825.16v.508h20.161v-.508zM721.325 157.038h-20.161v.508h20.161v-.508zM886.653 157.038h-20.161v.508h20.161v-.508zM948.643 157.038h-20.156v.508h20.156v-.508zM865.979 157.038h-20.156v.508h20.156v-.508zM1031.31 157.038h-20.16v.508h20.16v-.508zM1010.65 157.038h-20.163v.508h20.163v-.508z"/>
        <path opacity=".24" d="M659.833 157.038h-.254v.508h.254v-.508zM680.501 157.038h-.508v.508h.508v-.508zM701.164 157.038h-.508v.508h.508v-.508zM721.828 157.038h-.508v.508h.508v-.508zM742.497 157.038h-.508v.508h.508v-.508zM763.165 157.038h-.508v.508h.508v-.508zM783.828 157.038h-.508v.508h.508v-.508zM804.492 157.038h-.508v.508h.508v-.508zM825.16 157.038h-.508v.508h.508v-.508zM845.823 157.038h-.508v.508h.508v-.508zM866.493 157.038h-.508v.508h.508v-.508zM887.156 157.038h-.508v.508h.508v-.508zM907.824 157.038h-.508v.508h.508v-.508zM928.487 157.038h-.508v.508h.508v-.508zM949.156 157.038h-.508v.508h.508v-.508zM969.82 157.038h-.508v.508h.508v-.508zM990.488 157.038h-.508v.508h.508v-.508zM1011.15 157.038h-.51v.508h.51v-.508zM1031.82 157.038h-.51v.508h.51v-.508zM1052.48 157.038h-.5v.508h.5v-.508zM1073.15 157.038h-.51v.508h.51v-.508zM1093.82 157.038h-.51v.508h.51v-.508zM1114.48 157.038h-.5v.508h.5v-.508zM1135.15 157.038h-.51v.508h.51v-.508zM679.993 177.707h-20.161v.508h20.161v-.508zM989.98 177.707h-20.161v.508h20.161v-.508zM865.979 177.707h-20.156v.508h20.156v-.508zM886.653 177.707h-20.161v.508h20.161v-.508zM907.316 177.707h-20.161v.508h20.161v-.508zM1010.65 177.707h-20.163v.508h20.163v-.508zM948.643 177.707h-20.156v.508h20.156v-.508zM803.989 177.707h-20.161v.508h20.161v-.508zM969.317 177.707h-20.161v.508h20.161v-.508zM783.321 177.707h-20.156v.508h20.156v-.508zM741.988 177.707h-20.161v.508h20.161v-.508zM1031.31 177.707h-20.16v.508h20.16v-.508zM1051.98 177.707h-20.16v.508h20.16v-.508zM721.325 177.707h-20.161v.508h20.161v-.508zM1134.65 177.707h-20.17v.508h20.17v-.508zM700.657 177.707h-20.156v.508h20.156v-.508zM927.985 177.707h-20.161v.508h20.161v-.508zM1072.65 177.707h-20.17v.508h20.17v-.508zM824.653 177.707h-20.161v.508h20.161v-.508zM1113.97 177.707h-20.16v.508h20.16v-.508zM1093.31 177.707h-20.16v.508h20.16v-.508zM845.321 177.707H825.16v.508h20.161v-.508zM762.657 177.707h-20.161v.508h20.161v-.508z"/>
        <path opacity=".24" d="M659.833 177.707h-.254v.508h.254v-.508zM680.501 177.707h-.508v.508h.508v-.508zM701.164 177.707h-.508v.508h.508v-.508zM721.828 177.707h-.508v.508h.508v-.508zM742.497 177.707h-.508v.508h.508v-.508zM763.165 177.707h-.508v.508h.508v-.508zM783.828 177.707h-.508v.508h.508v-.508zM804.492 177.707h-.508v.508h.508v-.508zM825.16 177.707h-.508v.508h.508v-.508zM845.823 177.707h-.508v.508h.508v-.508zM866.493 177.707h-.508v.508h.508v-.508zM887.156 177.707h-.508v.508h.508v-.508zM907.824 177.707h-.508v.508h.508v-.508zM928.487 177.707h-.508v.508h.508v-.508zM949.156 177.707h-.508v.508h.508v-.508zM969.82 177.707h-.508v.508h.508v-.508zM990.488 177.707h-.508v.508h.508v-.508zM1011.15 177.707h-.51v.508h.51v-.508zM1031.82 177.707h-.51v.508h.51v-.508zM1052.48 177.707h-.5v.508h.5v-.508zM1073.15 177.707h-.51v.508h.51v-.508zM1093.82 177.707h-.51v.508h.51v-.508zM1114.48 177.707h-.5v.508h.5v-.508zM1135.15 177.707h-.51v.508h.51v-.508zM948.643 198.371h-20.156v.507h20.156v-.507zM845.321 198.371H825.16v.507h20.161v-.507zM721.325 198.371h-20.161v.507h20.161v-.507zM1093.31 198.371h-20.16v.507h20.16v-.507zM969.317 198.371h-20.161v.507h20.161v-.507zM1134.65 198.371h-20.17v.507h20.17v-.507zM927.985 198.371h-20.161v.507h20.161v-.507zM824.653 198.371h-20.161v.507h20.161v-.507zM700.657 198.371h-20.156v.507h20.156v-.507zM1113.97 198.371h-20.16v.507h20.16v-.507zM679.993 198.371h-20.161v.507h20.161v-.507zM907.316 198.371h-20.161v.507h20.161v-.507zM989.98 198.371h-20.161v.507h20.161v-.507zM865.979 198.371h-20.156v.507h20.156v-.507zM741.988 198.371h-20.161v.507h20.161v-.507zM886.653 198.371h-20.161v.507h20.161v-.507zM783.321 198.371h-20.156v.507h20.156v-.507zM762.657 198.371h-20.161v.507h20.161v-.507zM1031.31 198.371h-20.16v.507h20.16v-.507zM1051.98 198.371h-20.16v.507h20.16v-.507zM1072.65 198.371h-20.17v.507h20.17v-.507zM1010.65 198.371h-20.163v.507h20.163v-.507zM803.989 198.371h-20.161v.507h20.161v-.507z"/>
        <path opacity=".24" d="M659.833 198.371h-.254v.507h.254v-.507zM680.501 198.371h-.508v.507h.508v-.507zM701.164 198.371h-.508v.507h.508v-.507zM721.828 198.371h-.508v.507h.508v-.507zM742.497 198.371h-.508v.507h.508v-.507zM763.165 198.371h-.508v.507h.508v-.507zM783.828 198.371h-.508v.507h.508v-.507zM804.492 198.371h-.508v.507h.508v-.507zM825.16 198.371h-.508v.507h.508v-.507zM845.823 198.371h-.508v.507h.508v-.507zM866.493 198.371h-.508v.507h.508v-.507zM887.156 198.371h-.508v.507h.508v-.507zM907.824 198.371h-.508v.507h.508v-.507zM928.487 198.371h-.508v.507h.508v-.507zM949.156 198.371h-.508v.507h.508v-.507zM969.82 198.371h-.508v.507h.508v-.507zM990.488 198.371h-.508v.507h.508v-.507zM1011.15 198.371h-.51v.507h.51v-.507zM1031.82 198.371h-.51v.507h.51v-.507zM1052.48 198.371h-.5v.507h.5v-.507zM1073.15 198.371h-.51v.507h.51v-.507zM1093.82 198.371h-.51v.507h.51v-.507zM1114.48 198.371h-.5v.507h.5v-.507zM1135.15 198.371h-.51v.507h.51v-.507zM1051.98 219.039h-20.16v.507h20.16v-.507zM762.657 219.039h-20.161v.507h20.161v-.507zM969.317 219.039h-20.161v.507h20.161v-.507zM1134.65 219.039h-20.17v.507h20.17v-.507zM824.653 219.039h-20.161v.507h20.161v-.507zM886.653 219.039h-20.161v.507h20.161v-.507zM783.321 219.039h-20.156v.507h20.156v-.507zM1031.31 219.039h-20.16v.507h20.16v-.507zM927.985 219.039h-20.161v.507h20.161v-.507zM948.643 219.039h-20.156v.507h20.156v-.507zM741.988 219.039h-20.161v.507h20.161v-.507zM700.657 219.039h-20.156v.507h20.156v-.507zM803.989 219.039h-20.161v.507h20.161v-.507zM1010.65 219.039h-20.163v.507h20.163v-.507zM865.979 219.039h-20.156v.507h20.156v-.507zM1093.31 219.039h-20.16v.507h20.16v-.507zM1113.97 219.039h-20.16v.507h20.16v-.507zM989.98 219.039h-20.161v.507h20.161v-.507zM845.321 219.039H825.16v.507h20.161v-.507zM721.325 219.039h-20.161v.507h20.161v-.507zM679.993 219.039h-20.161v.507h20.161v-.507zM1072.65 219.039h-20.17v.507h20.17v-.507zM907.316 219.039h-20.161v.507h20.161v-.507z"/>
        <path opacity=".24" d="M659.833 219.039h-.254v.507h.254v-.507zM680.501 219.039h-.508v.507h.508v-.507zM701.164 219.039h-.508v.507h.508v-.507zM721.828 219.039h-.508v.507h.508v-.507zM742.497 219.039h-.508v.507h.508v-.507zM763.165 219.039h-.508v.507h.508v-.507zM783.828 219.039h-.508v.507h.508v-.507zM804.492 219.039h-.508v.507h.508v-.507zM825.16 219.039h-.508v.507h.508v-.507zM845.823 219.039h-.508v.507h.508v-.507zM866.493 219.039h-.508v.507h.508v-.507zM887.156 219.039h-.508v.507h.508v-.507zM907.824 219.039h-.508v.507h.508v-.507zM928.487 219.039h-.508v.507h.508v-.507zM949.156 219.039h-.508v.507h.508v-.507zM969.82 219.039h-.508v.507h.508v-.507zM990.488 219.039h-.508v.507h.508v-.507zM1011.15 219.039h-.51v.507h.51v-.507zM1031.82 219.039h-.51v.507h.51v-.507zM1052.48 219.039h-.5v.507h.5v-.507zM1073.15 219.039h-.51v.507h.51v-.507zM1093.82 219.039h-.51v.507h.51v-.507zM1114.48 219.039h-.5v.507h.5v-.507zM1135.15 219.039h-.51v.507h.51v-.507zM679.993 239.702h-20.161v.508h20.161v-.508zM762.657 239.702h-20.161v.508h20.161v-.508zM1031.31 239.702h-20.16v.508h20.16v-.508zM741.988 239.702h-20.161v.508h20.161v-.508zM1093.31 239.702h-20.16v.508h20.16v-.508zM1072.65 239.702h-20.17v.508h20.17v-.508zM803.989 239.702h-20.161v.508h20.161v-.508zM886.653 239.702h-20.161v.508h20.161v-.508zM1134.65 239.702h-20.17v.508h20.17v-.508zM1010.65 239.702h-20.163v.508h20.163v-.508zM1113.97 239.702h-20.16v.508h20.16v-.508zM948.643 239.702h-20.156v.508h20.156v-.508zM1051.98 239.702h-20.16v.508h20.16v-.508zM700.657 239.702h-20.156v.508h20.156v-.508zM845.321 239.702H825.16v.508h20.161v-.508zM824.653 239.702h-20.161v.508h20.161v-.508zM783.321 239.702h-20.156v.508h20.156v-.508zM969.317 239.702h-20.161v.508h20.161v-.508zM989.98 239.702h-20.161v.508h20.161v-.508zM721.325 239.702h-20.161v.508h20.161v-.508zM927.985 239.702h-20.161v.508h20.161v-.508zM865.979 239.702h-20.156v.508h20.156v-.508zM907.316 239.702h-20.161v.508h20.161v-.508z"/>
        <path opacity=".24" d="M659.833 239.702h-.254v.508h.254v-.508zM680.501 239.702h-.508v.508h.508v-.508zM701.164 239.702h-.508v.508h.508v-.508zM721.828 239.702h-.508v.508h.508v-.508zM742.497 239.702h-.508v.508h.508v-.508zM763.165 239.702h-.508v.508h.508v-.508zM783.828 239.702h-.508v.508h.508v-.508zM804.492 239.702h-.508v.508h.508v-.508zM825.16 239.702h-.508v.508h.508v-.508zM845.823 239.702h-.508v.508h.508v-.508zM866.493 239.702h-.508v.508h.508v-.508zM887.156 239.702h-.508v.508h.508v-.508zM907.824 239.702h-.508v.508h.508v-.508zM928.487 239.702h-.508v.508h.508v-.508zM949.156 239.702h-.508v.508h.508v-.508zM969.82 239.702h-.508v.508h.508v-.508zM990.488 239.702h-.508v.508h.508v-.508zM1011.15 239.702h-.51v.508h.51v-.508zM1031.82 239.702h-.51v.508h.51v-.508zM1052.48 239.702h-.5v.508h.5v-.508zM1073.15 239.702h-.51v.508h.51v-.508zM1093.82 239.702h-.51v.508h.51v-.508zM1114.48 239.702h-.5v.508h.5v-.508zM1135.15 239.702h-.51v.508h.51v-.508zM969.317 260.371h-20.161v.508h20.161v-.508zM700.657 260.371h-20.156v.508h20.156v-.508zM741.988 260.371h-20.161v.508h20.161v-.508zM762.657 260.371h-20.161v.508h20.161v-.508zM721.325 260.371h-20.161v.508h20.161v-.508zM803.989 260.371h-20.161v.508h20.161v-.508zM907.316 260.371h-20.161v.508h20.161v-.508zM1031.31 260.371h-20.16v.508h20.16v-.508zM865.979 260.371h-20.156v.508h20.156v-.508zM989.98 260.371h-20.161v.508h20.161v-.508zM824.653 260.371h-20.161v.508h20.161v-.508zM1093.31 260.371h-20.16v.508h20.16v-.508zM1134.65 260.371h-20.17v.508h20.17v-.508zM845.321 260.371H825.16v.508h20.161v-.508zM1113.97 260.371h-20.16v.508h20.16v-.508zM783.321 260.371h-20.156v.508h20.156v-.508zM1010.65 260.371h-20.163v.508h20.163v-.508zM948.643 260.371h-20.156v.508h20.156v-.508zM927.985 260.371h-20.161v.508h20.161v-.508zM886.653 260.371h-20.161v.508h20.161v-.508zM1072.65 260.371h-20.17v.508h20.17v-.508zM679.993 260.371h-20.161v.508h20.161v-.508zM1051.98 260.371h-20.16v.508h20.16v-.508z"/>
        <path opacity=".24" d="M659.833 260.371h-.254v.508h.254v-.508zM680.501 260.371h-.508v.508h.508v-.508zM701.164 260.371h-.508v.508h.508v-.508zM721.828 260.371h-.508v.508h.508v-.508zM742.497 260.371h-.508v.508h.508v-.508zM763.165 260.371h-.508v.508h.508v-.508zM783.828 260.371h-.508v.508h.508v-.508zM804.492 260.371h-.508v.508h.508v-.508zM825.16 260.371h-.508v.508h.508v-.508zM845.823 260.371h-.508v.508h.508v-.508zM866.493 260.371h-.508v.508h.508v-.508zM887.156 260.371h-.508v.508h.508v-.508zM907.824 260.371h-.508v.508h.508v-.508zM928.487 260.371h-.508v.508h.508v-.508zM949.156 260.371h-.508v.508h.508v-.508zM969.82 260.371h-.508v.508h.508v-.508zM990.488 260.371h-.508v.508h.508v-.508zM1011.15 260.371h-.51v.508h.51v-.508zM1031.82 260.371h-.51v.508h.51v-.508zM1052.48 260.371h-.5v.508h.5v-.508zM1073.15 260.371h-.51v.508h.51v-.508zM1093.82 260.371h-.51v.508h.51v-.508zM1114.48 260.371h-.5v.508h.5v-.508zM1135.15 260.371h-.51v.508h.51v-.508zM927.985 281.034h-20.161v.508h20.161v-.508zM762.657 281.034h-20.161v.508h20.161v-.508zM783.321 281.034h-20.156v.508h20.156v-.508zM907.316 281.034h-20.161v.508h20.161v-.508zM700.657 281.034h-20.156v.508h20.156v-.508zM969.317 281.034h-20.161v.508h20.161v-.508zM1010.65 281.034h-20.163v.508h20.163v-.508zM865.979 281.034h-20.156v.508h20.156v-.508zM1031.31 281.034h-20.16v.508h20.16v-.508zM803.989 281.034h-20.161v.508h20.161v-.508zM1093.31 281.034h-20.16v.508h20.16v-.508zM948.643 281.034h-20.156v.508h20.156v-.508zM1113.97 281.034h-20.16v.508h20.16v-.508zM1134.65 281.034h-20.17v.508h20.17v-.508zM721.325 281.034h-20.161v.508h20.161v-.508zM1051.98 281.034h-20.16v.508h20.16v-.508zM1072.65 281.034h-20.17v.508h20.17v-.508zM989.98 281.034h-20.161v.508h20.161v-.508zM824.653 281.034h-20.161v.508h20.161v-.508zM886.653 281.034h-20.161v.508h20.161v-.508zM845.321 281.034H825.16v.508h20.161v-.508zM679.993 281.034h-20.161v.508h20.161v-.508zM741.988 281.034h-20.161v.508h20.161v-.508z"/>
        <path opacity=".24" d="M659.833 281.034h-.254v.508h.254v-.508zM680.501 281.034h-.508v.508h.508v-.508zM701.164 281.034h-.508v.508h.508v-.508zM721.828 281.034h-.508v.508h.508v-.508zM742.497 281.034h-.508v.508h.508v-.508zM763.165 281.034h-.508v.508h.508v-.508zM783.828 281.034h-.508v.508h.508v-.508zM804.492 281.034h-.508v.508h.508v-.508zM825.16 281.034h-.508v.508h.508v-.508zM845.823 281.034h-.508v.508h.508v-.508zM866.493 281.034h-.508v.508h.508v-.508zM887.156 281.034h-.508v.508h.508v-.508zM907.824 281.034h-.508v.508h.508v-.508zM928.487 281.034h-.508v.508h.508v-.508zM949.156 281.034h-.508v.508h.508v-.508zM969.82 281.034h-.508v.508h.508v-.508zM990.488 281.034h-.508v.508h.508v-.508zM1011.15 281.034h-.51v.508h.51v-.508zM1031.82 281.034h-.51v.508h.51v-.508zM1052.48 281.034h-.5v.508h.5v-.508zM1073.15 281.034h-.51v.508h.51v-.508zM1093.82 281.034h-.51v.508h.51v-.508zM1114.48 281.034h-.5v.508h.5v-.508zM1135.15 281.034h-.51v.508h.51v-.508zM1113.97 301.703h-20.16v.507h20.16v-.507zM1134.65 301.703h-20.17v.507h20.17v-.507zM989.98 301.703h-20.161v.507h20.161v-.507zM1010.65 301.703h-20.163v.507h20.163v-.507zM762.657 301.703h-20.161v.507h20.161v-.507zM1031.31 301.703h-20.16v.507h20.16v-.507zM700.657 301.703h-20.156v.507h20.156v-.507zM1093.31 301.703h-20.16v.507h20.16v-.507zM1051.98 301.703h-20.16v.507h20.16v-.507zM1072.65 301.703h-20.17v.507h20.17v-.507zM845.321 301.703H825.16v.507h20.161v-.507zM907.316 301.703h-20.161v.507h20.161v-.507zM886.653 301.703h-20.161v.507h20.161v-.507zM865.979 301.703h-20.156v.507h20.156v-.507zM803.989 301.703h-20.161v.507h20.161v-.507zM948.643 301.703h-20.156v.507h20.156v-.507zM824.653 301.703h-20.161v.507h20.161v-.507zM679.993 301.703h-20.161v.507h20.161v-.507zM783.321 301.703h-20.156v.507h20.156v-.507zM741.988 301.703h-20.161v.507h20.161v-.507zM721.325 301.703h-20.161v.507h20.161v-.507zM969.317 301.703h-20.161v.507h20.161v-.507zM927.985 301.703h-20.161v.507h20.161v-.507z"/>
        <path opacity=".24" d="M659.833 301.703h-.254v.507h.254v-.507zM680.501 301.703h-.508v.507h.508v-.507zM701.164 301.703h-.508v.507h.508v-.507zM721.828 301.703h-.508v.507h.508v-.507zM742.497 301.703h-.508v.507h.508v-.507zM763.165 301.703h-.508v.507h.508v-.507zM783.828 301.703h-.508v.507h.508v-.507zM804.492 301.703h-.508v.507h.508v-.507zM825.16 301.703h-.508v.507h.508v-.507zM845.823 301.703h-.508v.507h.508v-.507zM866.493 301.703h-.508v.507h.508v-.507zM887.156 301.703h-.508v.507h.508v-.507zM907.824 301.703h-.508v.507h.508v-.507zM928.487 301.703h-.508v.507h.508v-.507zM949.156 301.703h-.508v.507h.508v-.507zM969.82 301.703h-.508v.507h.508v-.507zM990.488 301.703h-.508v.507h.508v-.507zM1011.15 301.703h-.51v.507h.51v-.507zM1031.82 301.703h-.51v.507h.51v-.507zM1052.48 301.703h-.5v.507h.5v-.507zM1073.15 301.703h-.51v.507h.51v-.507zM1093.82 301.703h-.51v.507h.51v-.507zM1114.48 301.703h-.5v.507h.5v-.507zM1135.15 301.703h-.51v.507h.51v-.507zM989.98 322.367h-20.161v.507h20.161v-.507zM783.321 322.367h-20.156v.507h20.156v-.507zM803.989 322.367h-20.161v.507h20.161v-.507zM679.993 322.367h-20.161v.507h20.161v-.507zM1134.65 322.367h-20.17v.507h20.17v-.507zM865.979 322.367h-20.156v.507h20.156v-.507zM1051.98 322.367h-20.16v.507h20.16v-.507zM762.657 322.367h-20.161v.507h20.161v-.507zM824.653 322.367h-20.161v.507h20.161v-.507zM741.988 322.367h-20.161v.507h20.161v-.507zM969.317 322.367h-20.161v.507h20.161v-.507zM700.657 322.367h-20.156v.507h20.156v-.507zM948.643 322.367h-20.156v.507h20.156v-.507zM1113.97 322.367h-20.16v.507h20.16v-.507zM927.985 322.367h-20.161v.507h20.161v-.507zM1031.31 322.367h-20.16v.507h20.16v-.507zM721.325 322.367h-20.161v.507h20.161v-.507zM845.321 322.367H825.16v.507h20.161v-.507zM1010.65 322.367h-20.163v.507h20.163v-.507zM1093.31 322.367h-20.16v.507h20.16v-.507zM886.653 322.367h-20.161v.507h20.161v-.507zM1072.65 322.367h-20.17v.507h20.17v-.507zM907.316 322.367h-20.161v.507h20.161v-.507z"/>
        <path opacity=".24" d="M659.833 322.367h-.254v.507h.254v-.507zM680.501 322.367h-.508v.507h.508v-.507zM701.164 322.367h-.508v.507h.508v-.507zM721.828 322.367h-.508v.507h.508v-.507zM742.497 322.367h-.508v.507h.508v-.507zM763.165 322.367h-.508v.507h.508v-.507zM783.828 322.367h-.508v.507h.508v-.507zM804.492 322.367h-.508v.507h.508v-.507zM825.16 322.367h-.508v.507h.508v-.507zM845.823 322.367h-.508v.507h.508v-.507zM866.493 322.367h-.508v.507h.508v-.507zM887.156 322.367h-.508v.507h.508v-.507zM907.824 322.367h-.508v.507h.508v-.507zM928.487 322.367h-.508v.507h.508v-.507zM949.156 322.367h-.508v.507h.508v-.507zM969.82 322.367h-.508v.507h.508v-.507zM990.488 322.367h-.508v.507h.508v-.507zM1011.15 322.367h-.51v.507h.51v-.507zM1031.82 322.367h-.51v.507h.51v-.507zM1052.48 322.367h-.5v.507h.5v-.507zM1073.15 322.367h-.51v.507h.51v-.507zM1093.82 322.367h-.51v.507h.51v-.507zM1114.48 322.367h-.5v.507h.5v-.507zM1135.15 322.367h-.51v.507h.51v-.507zM1134.65 343.035h-20.17v.507h20.17v-.507zM721.325 343.035h-20.161v.507h20.161v-.507zM865.979 343.035h-20.156v.507h20.156v-.507zM803.989 343.035h-20.161v.507h20.161v-.507zM1010.65 343.035h-20.163v.507h20.163v-.507zM783.321 343.035h-20.156v.507h20.156v-.507zM762.657 343.035h-20.161v.507h20.161v-.507zM1031.31 343.035h-20.16v.507h20.16v-.507zM679.993 343.035h-20.161v.507h20.161v-.507zM948.643 343.035h-20.156v.507h20.156v-.507zM700.657 343.035h-20.156v.507h20.156v-.507zM927.985 343.035h-20.161v.507h20.161v-.507zM969.317 343.035h-20.161v.507h20.161v-.507zM989.98 343.035h-20.161v.507h20.161v-.507zM845.321 343.035H825.16v.507h20.161v-.507zM1093.31 343.035h-20.16v.507h20.16v-.507zM886.653 343.035h-20.161v.507h20.161v-.507zM1113.97 343.035h-20.16v.507h20.16v-.507zM907.316 343.035h-20.161v.507h20.161v-.507zM824.653 343.035h-20.161v.507h20.161v-.507zM1072.65 343.035h-20.17v.507h20.17v-.507zM1051.98 343.035h-20.16v.507h20.16v-.507zM741.988 343.035h-20.161v.507h20.161v-.507z"/>
        <path opacity=".24" d="M659.833 343.035h-.254v.507h.254v-.507zM680.501 343.035h-.508v.507h.508v-.507zM701.164 343.035h-.508v.507h.508v-.507zM721.828 343.035h-.508v.507h.508v-.507zM742.497 343.035h-.508v.507h.508v-.507zM763.165 343.035h-.508v.507h.508v-.507zM783.828 343.035h-.508v.507h.508v-.507zM804.492 343.035h-.508v.507h.508v-.507zM825.16 343.035h-.508v.507h.508v-.507zM845.823 343.035h-.508v.507h.508v-.507zM866.493 343.035h-.508v.507h.508v-.507zM887.156 343.035h-.508v.507h.508v-.507zM907.824 343.035h-.508v.507h.508v-.507zM928.487 343.035h-.508v.507h.508v-.507zM949.156 343.035h-.508v.507h.508v-.507zM969.82 343.035h-.508v.507h.508v-.507zM990.488 343.035h-.508v.507h.508v-.507zM1011.15 343.035h-.51v.507h.51v-.507zM1031.82 343.035h-.51v.507h.51v-.507zM1052.48 343.035h-.5v.507h.5v-.507zM1073.15 343.035h-.51v.507h.51v-.507zM1093.82 343.035h-.51v.507h.51v-.507zM1114.48 343.035h-.5v.507h.5v-.507zM1135.15 343.035h-.51v.507h.51v-.507zM824.653 363.699h-20.161v.507h20.161v-.507zM700.657 363.699h-20.156v.507h20.156v-.507zM845.321 363.699H825.16v.507h20.161v-.507zM762.657 363.699h-20.161v.507h20.161v-.507zM907.316 363.699h-20.161v.507h20.161v-.507zM989.98 363.699h-20.161v.507h20.161v-.507zM1010.65 363.699h-20.163v.507h20.163v-.507zM969.317 363.699h-20.161v.507h20.161v-.507zM1031.31 363.699h-20.16v.507h20.16v-.507zM886.653 363.699h-20.161v.507h20.161v-.507zM1051.98 363.699h-20.16v.507h20.16v-.507zM783.321 363.699h-20.156v.507h20.156v-.507zM741.988 363.699h-20.161v.507h20.161v-.507zM948.643 363.699h-20.156v.507h20.156v-.507zM927.985 363.699h-20.161v.507h20.161v-.507zM1113.97 363.699h-20.16v.507h20.16v-.507zM721.325 363.699h-20.161v.507h20.161v-.507zM803.989 363.699h-20.161v.507h20.161v-.507zM1093.31 363.699h-20.16v.507h20.16v-.507zM679.993 363.699h-20.161v.507h20.161v-.507zM1072.65 363.699h-20.17v.507h20.17v-.507zM865.979 363.699h-20.156v.507h20.156v-.507zM1134.65 363.699h-20.17v.507h20.17v-.507z"/>
        <path opacity=".24" d="M659.833 363.699h-.254v.507h.254v-.507zM680.501 363.699h-.508v.507h.508v-.507zM701.164 363.699h-.508v.507h.508v-.507zM721.828 363.699h-.508v.507h.508v-.507zM742.497 363.699h-.508v.507h.508v-.507zM763.165 363.699h-.508v.507h.508v-.507zM783.828 363.699h-.508v.507h.508v-.507zM804.492 363.699h-.508v.507h.508v-.507zM825.16 363.699h-.508v.507h.508v-.507zM845.823 363.699h-.508v.507h.508v-.507zM866.493 363.699h-.508v.507h.508v-.507zM887.156 363.699h-.508v.507h.508v-.507zM907.824 363.699h-.508v.507h.508v-.507zM928.487 363.699h-.508v.507h.508v-.507zM949.156 363.699h-.508v.507h.508v-.507zM969.82 363.699h-.508v.507h.508v-.507zM990.488 363.699h-.508v.507h.508v-.507zM1011.15 363.699h-.51v.507h.51v-.507zM1031.82 363.699h-.51v.507h.51v-.507zM1052.48 363.699h-.5v.507h.5v-.507zM1073.15 363.699h-.51v.507h.51v-.507zM1093.82 363.699h-.51v.507h.51v-.507zM1114.48 363.699h-.5v.507h.5v-.507zM1135.15 363.699h-.51v.507h.51v-.507zM1031.31 384.367h-20.16v.508h20.16v-.508zM783.321 384.367h-20.156v.508h20.156v-.508zM1113.97 384.367h-20.16v.508h20.16v-.508zM989.98 384.367h-20.161v.508h20.161v-.508zM948.643 384.367h-20.156v.508h20.156v-.508zM1010.65 384.367h-20.163v.508h20.163v-.508zM803.989 384.367h-20.161v.508h20.161v-.508zM721.325 384.367h-20.161v.508h20.161v-.508zM1072.65 384.367h-20.17v.508h20.17v-.508zM1093.31 384.367h-20.16v.508h20.16v-.508zM865.979 384.367h-20.156v.508h20.156v-.508zM1051.98 384.367h-20.16v.508h20.16v-.508zM1134.65 384.367h-20.17v.508h20.17v-.508zM845.321 384.367H825.16v.508h20.161v-.508zM886.653 384.367h-20.161v.508h20.161v-.508zM679.993 384.367h-20.161v.508h20.161v-.508zM907.316 384.367h-20.161v.508h20.161v-.508zM824.653 384.367h-20.161v.508h20.161v-.508zM927.985 384.367h-20.161v.508h20.161v-.508zM700.657 384.367h-20.156v.508h20.156v-.508zM762.657 384.367h-20.161v.508h20.161v-.508zM741.988 384.367h-20.161v.508h20.161v-.508zM969.317 384.367h-20.161v.508h20.161v-.508z"/>
        <path opacity=".24" d="M659.833 384.367h-.254v.508h.254v-.508zM680.501 384.367h-.508v.508h.508v-.508zM701.164 384.367h-.508v.508h.508v-.508zM721.828 384.367h-.508v.508h.508v-.508zM742.497 384.367h-.508v.508h.508v-.508zM763.165 384.367h-.508v.508h.508v-.508zM783.828 384.367h-.508v.508h.508v-.508zM804.492 384.367h-.508v.508h.508v-.508zM825.16 384.367h-.508v.508h.508v-.508zM845.823 384.367h-.508v.508h.508v-.508zM866.493 384.367h-.508v.508h.508v-.508zM887.156 384.367h-.508v.508h.508v-.508zM907.824 384.367h-.508v.508h.508v-.508zM928.487 384.367h-.508v.508h.508v-.508zM949.156 384.367h-.508v.508h.508v-.508zM969.82 384.367h-.508v.508h.508v-.508zM990.488 384.367h-.508v.508h.508v-.508zM1011.15 384.367h-.51v.508h.51v-.508zM1031.82 384.367h-.51v.508h.51v-.508zM1052.48 384.367h-.5v.508h.5v-.508zM1073.15 384.367h-.51v.508h.51v-.508zM1093.82 384.367h-.51v.508h.51v-.508zM1114.48 384.367h-.5v.508h.5v-.508zM1135.15 384.367h-.51v.508h.51v-.508zM679.993 405.03h-20.161v.508h20.161v-.508zM1134.65 405.03h-20.17v.508h20.17v-.508zM1093.31 405.03h-20.16v.508h20.16v-.508zM1113.97 405.03h-20.16v.508h20.16v-.508zM700.657 405.03h-20.156v.508h20.156v-.508zM762.657 405.03h-20.161v.508h20.161v-.508zM803.989 405.03h-20.161v.508h20.161v-.508zM1010.65 405.03h-20.163v.508h20.163v-.508zM927.985 405.03h-20.161v.508h20.161v-.508zM1031.31 405.03h-20.16v.508h20.16v-.508zM948.643 405.03h-20.156v.508h20.156v-.508zM989.98 405.03h-20.161v.508h20.161v-.508zM1051.98 405.03h-20.16v.508h20.16v-.508zM886.653 405.03h-20.161v.508h20.161v-.508zM907.316 405.03h-20.161v.508h20.161v-.508zM1072.65 405.03h-20.17v.508h20.17v-.508zM865.979 405.03h-20.156v.508h20.156v-.508zM721.325 405.03h-20.161v.508h20.161v-.508zM845.321 405.03H825.16v.508h20.161v-.508zM783.321 405.03h-20.156v.508h20.156v-.508zM824.653 405.03h-20.161v.508h20.161v-.508zM741.988 405.03h-20.161v.508h20.161v-.508zM969.317 405.03h-20.161v.508h20.161v-.508z"/>
        <path opacity=".24" d="M659.833 405.03h-.254v.508h.254v-.508zM680.501 405.03h-.508v.508h.508v-.508zM701.164 405.03h-.508v.508h.508v-.508zM721.828 405.03h-.508v.508h.508v-.508zM742.497 405.03h-.508v.508h.508v-.508zM763.165 405.03h-.508v.508h.508v-.508zM783.828 405.03h-.508v.508h.508v-.508zM804.492 405.03h-.508v.508h.508v-.508zM825.16 405.03h-.508v.508h.508v-.508zM845.823 405.03h-.508v.508h.508v-.508zM866.493 405.03h-.508v.508h.508v-.508zM887.156 405.03h-.508v.508h.508v-.508zM907.824 405.03h-.508v.508h.508v-.508zM928.487 405.03h-.508v.508h.508v-.508zM949.156 405.03h-.508v.508h.508v-.508zM969.82 405.03h-.508v.508h.508v-.508zM990.488 405.03h-.508v.508h.508v-.508zM1011.15 405.03h-.51v.508h.51v-.508zM1031.82 405.03h-.51v.508h.51v-.508zM1052.48 405.03h-.5v.508h.5v-.508zM1073.15 405.03h-.51v.508h.51v-.508zM1093.82 405.03h-.51v.508h.51v-.508zM1114.48 405.03h-.5v.508h.5v-.508zM1135.15 405.03h-.51v.508h.51v-.508zM679.993 425.699h-20.161v.507h20.161v-.507zM1134.65 425.699h-20.17v.507h20.17v-.507zM741.988 425.699h-20.161v.507h20.161v-.507zM907.316 425.699h-20.161v.507h20.161v-.507zM845.321 425.699H825.16v.507h20.161v-.507zM762.657 425.699h-20.161v.507h20.161v-.507zM927.985 425.699h-20.161v.507h20.161v-.507zM948.643 425.699h-20.156v.507h20.156v-.507zM803.989 425.699h-20.161v.507h20.161v-.507zM824.653 425.699h-20.161v.507h20.161v-.507zM886.653 425.699h-20.161v.507h20.161v-.507zM721.325 425.699h-20.161v.507h20.161v-.507zM865.979 425.699h-20.156v.507h20.156v-.507zM1072.65 425.699h-20.17v.507h20.17v-.507zM1113.97 425.699h-20.16v.507h20.16v-.507zM1051.98 425.699h-20.16v.507h20.16v-.507zM1031.31 425.699h-20.16v.507h20.16v-.507zM1093.31 425.699h-20.16v.507h20.16v-.507zM783.321 425.699h-20.156v.507h20.156v-.507zM1010.65 425.699h-20.163v.507h20.163v-.507zM989.98 425.699h-20.161v.507h20.161v-.507zM700.657 425.699h-20.156v.507h20.156v-.507zM969.317 425.699h-20.161v.507h20.161v-.507z"/>
        <path opacity=".24" d="M659.833 425.699h-.254v.507h.254v-.507zM680.501 425.699h-.508v.507h.508v-.507zM701.164 425.699h-.508v.507h.508v-.507zM721.828 425.699h-.508v.507h.508v-.507zM742.497 425.699h-.508v.507h.508v-.507zM763.165 425.699h-.508v.507h.508v-.507zM783.828 425.699h-.508v.507h.508v-.507zM804.492 425.699h-.508v.507h.508v-.507zM825.16 425.699h-.508v.507h.508v-.507zM845.823 425.699h-.508v.507h.508v-.507zM866.493 425.699h-.508v.507h.508v-.507zM887.156 425.699h-.508v.507h.508v-.507zM907.824 425.699h-.508v.507h.508v-.507zM928.487 425.699h-.508v.507h.508v-.507zM949.156 425.699h-.508v.507h.508v-.507zM969.82 425.699h-.508v.507h.508v-.507zM990.488 425.699h-.508v.507h.508v-.507zM1011.15 425.699h-.51v.507h.51v-.507zM1031.82 425.699h-.51v.507h.51v-.507zM1052.48 425.699h-.5v.507h.5v-.507zM1073.15 425.699h-.51v.507h.51v-.507zM1093.82 425.699h-.51v.507h.51v-.507zM1114.48 425.699h-.5v.507h.5v-.507zM1135.15 425.699h-.51v.507h.51v-.507zM803.989 446.363h-20.161v.507h20.161v-.507zM783.321 446.363h-20.156v.507h20.156v-.507zM741.988 446.363h-20.161v.507h20.161v-.507zM700.657 446.363h-20.156v.507h20.156v-.507zM762.657 446.363h-20.161v.507h20.161v-.507zM721.325 446.363h-20.161v.507h20.161v-.507zM1010.65 446.363h-20.163v.507h20.163v-.507zM927.985 446.363h-20.161v.507h20.161v-.507zM1051.98 446.363h-20.16v.507h20.16v-.507zM969.317 446.363h-20.161v.507h20.161v-.507zM1031.31 446.363h-20.16v.507h20.16v-.507zM886.653 446.363h-20.161v.507h20.161v-.507zM865.979 446.363h-20.156v.507h20.156v-.507zM907.316 446.363h-20.161v.507h20.161v-.507zM948.643 446.363h-20.156v.507h20.156v-.507zM989.98 446.363h-20.161v.507h20.161v-.507zM824.653 446.363h-20.161v.507h20.161v-.507zM679.993 446.363h-20.161v.507h20.161v-.507zM1113.97 446.363h-20.16v.507h20.16v-.507zM1093.31 446.363h-20.16v.507h20.16v-.507zM1134.65 446.363h-20.17v.507h20.17v-.507zM1072.65 446.363h-20.17v.507h20.17v-.507zM845.321 446.363H825.16v.507h20.161v-.507z"/>
        <path opacity=".24" d="M659.833 446.363h-.254v.507h.254v-.507zM680.501 446.363h-.508v.507h.508v-.507zM701.164 446.363h-.508v.507h.508v-.507zM721.828 446.363h-.508v.507h.508v-.507zM742.497 446.363h-.508v.507h.508v-.507zM763.165 446.363h-.508v.507h.508v-.507zM783.828 446.363h-.508v.507h.508v-.507zM804.492 446.363h-.508v.507h.508v-.507zM825.16 446.363h-.508v.507h.508v-.507zM845.823 446.363h-.508v.507h.508v-.507zM866.493 446.363h-.508v.507h.508v-.507zM887.156 446.363h-.508v.507h.508v-.507zM907.824 446.363h-.508v.507h.508v-.507zM928.487 446.363h-.508v.507h.508v-.507zM949.156 446.363h-.508v.507h.508v-.507zM969.82 446.363h-.508v.507h.508v-.507zM990.488 446.363h-.508v.507h.508v-.507zM1011.15 446.363h-.51v.507h.51v-.507zM1031.82 446.363h-.51v.507h.51v-.507zM1052.48 446.363h-.5v.507h.5v-.507zM1073.15 446.363h-.51v.507h.51v-.507zM1093.82 446.363h-.51v.507h.51v-.507zM1114.48 446.363h-.5v.507h.5v-.507zM1135.15 446.363h-.51v.507h.51v-.507z"/>
      </g>
      <g opacity=".5">
        <g filter="url(#filter0_f)">
          <path d="M680.313 201.669a3.045 3.045 0 100-6.09 3.045 3.045 0 000 6.09z" fill="url(#paint2_linear)"/>
        </g>
        <path d="M680.313 200.624a2 2 0 10.001-3.999 2 2 0 00-.001 3.999z" fill="url(#paint3_radial)"/>
        <path d="M804.491 54.219h-62.503v-20.69l-41.078.01v-.507l41.586-.01v20.69h61.488V33.55H783.32V12.887h-20.663v-.508h21.171v20.664h20.663v21.176z" fill="url(#paint4_linear)"/>
        <path d="M742.497 198.878h-62.184v-.508h61.676v-61.995h20.669V95.043h20.663V53.71h.508v41.84h-20.664v41.331h-20.668v61.996z" fill="#fff"/>
        <path d="M845.823 74.882h-62.249v-.508h61.742v-102.82h-82.659v-20.668h-20.415v-.508h20.922v20.669h82.659V74.882z" fill="#fff"/>
        <path d="M804.492 239.702h-41.835v.508h41.327v20.668h21.176V74.628h-.507v185.743h-20.161v-20.669z" fill="#fff"/>
        <g filter="url(#filter1_f)">
          <path d="M762.957 15.678a3.045 3.045 0 100-6.091 3.045 3.045 0 000 6.09z" fill="#E9E9F4"/>
        </g>
        <path opacity=".5" d="M762.911 14.63a2 2 0 100-4 2 2 0 000 4z" fill="url(#paint5_radial)"/>
        <path d="M824.653 157.8h-41.078v-41.84h-20.41v-.507h20.917v41.839h40.571v.508z" fill="#fff"/>
        <path d="M742.496 446.87H700.91v-.507h41.078v-41.332h82.664v-82.685l82.664.021V198.878h-82.41v-.507h82.918v124.503l-82.664-.02v82.684h-82.664v41.332z" fill="url(#paint6_linear)"/>
        <path d="M824.906 363.698H700.91v.508h123.996v-.508z" fill="url(#paint7_linear)"/>
        <g opacity=".7" filter="url(#filter2_f)">
          <path d="M700.91 449.661a3.045 3.045 0 100-6.09 3.045 3.045 0 000 6.09z" fill="#E9E9F4"/>
        </g>
        <path d="M700.91 448.616a2 2 0 10.001-3.999 2 2 0 00-.001 3.999z" fill="url(#paint8_radial)"/>
        <g filter="url(#filter3_f)">
          <path d="M700.91 36.341a3.045 3.045 0 100-6.09 3.045 3.045 0 000 6.09z" fill="#E9E9F4"/>
        </g>
        <path d="M700.91 35.296a2 2 0 100-4 2 2 0 000 4z" fill="url(#paint9_linear)" fill-opacity=".5"/>
        <g opacity=".7" filter="url(#filter4_f)">
          <path d="M700.91 366.997a3.045 3.045 0 100-6.09 3.045 3.045 0 000 6.09z" fill="#E9E9F4"/>
        </g>
        <path d="M700.91 365.952a2 2 0 10.001-3.999 2 2 0 00-.001 3.999z" fill="url(#paint10_radial)"/>
        <path opacity=".5" d="M1134.96 54.218H907.316v-62h-61.747v-.508h62.255v62.001h227.136v.507z" fill="#fff"/>
        <path d="M1134.96 95.043H824.906v.508h310.054v-.508z" fill="url(#paint11_linear)"/>
        <path d="M1134.96 12.886H989.98v-41.332h-82.663v-20.658l-82.411-.01v-.508l82.918.01v20.659h82.664v41.332h144.472v.507z" fill="url(#paint12_linear)"/>
        <path d="M928.487 529.534H783.574v-.508H927.98V446.87h-41.327V322.62h.507v123.742h41.327v83.172z" fill="url(#paint13_linear)"/>
        <path d="M1134.96 322.874H969.317V240.21H907.57v-.508h62.255v82.664h165.135v.508z" fill="url(#paint14_linear)"/>
        <path d="M949.156 178.214H824.84v-.507h123.808v-20.669h186.312v.508H949.156v20.668z" fill="url(#paint15_linear)"/>
        <path d="M1134.97 550.202H989.981V405.538H886.907v-.507h103.581v144.664h144.482v.507z" fill="url(#paint16_linear)"/>
        <path d="M1093.82 488.202h-62.51V384.875H886.907v-.508h144.913v103.328h61.49v-82.664l41.65.025v.507l-41.14-.025v82.664z" fill="url(#paint17_linear)"/>
        <g opacity=".7" filter="url(#filter5_f)">
          <path d="M762.911 98.341a3.045 3.045 0 100-6.09 3.045 3.045 0 000 6.09z" fill="#AEB1C2"/>
        </g>
        <path opacity=".5" d="M762.911 97.297a2 2 0 100-4 2 2 0 000 4z" fill="url(#paint18_radial)"/>
      </g>
    </g>
  </g>
  <defs>
    <linearGradient id="paint0_linear" x1="31.884" y1="3.645" x2="416.078" y2="907.597" gradientUnits="userSpaceOnUse">
      <stop stop-color="#392DD1"/>
      <stop offset="1" stop-color="#22B8CF"/>
    </linearGradient>
    <linearGradient id="paint1_linear" x1="-142.021" y1="455.703" x2="1354.25" y2="455.703" gradientUnits="userSpaceOnUse">
      <stop stop-color="#A23EEF"/>
      <stop offset="0" stop-color="#A23EEF"/>
      <stop offset="1" stop-color="#A41F66"/>
    </linearGradient>
    <linearGradient id="paint2_linear" x1="680.313" y1="195.579" x2="680.313" y2="201.669" gradientUnits="userSpaceOnUse">
      <stop offset=".719" stop-color="#fff"/>
      <stop offset="1" stop-color="#fff" stop-opacity="0"/>
    </linearGradient>
    <linearGradient id="paint4_linear" x1="714.446" y1="30.366" x2="813.27" y2="43.429" gradientUnits="userSpaceOnUse">
      <stop stop-color="#fff"/>
      <stop offset=".863" stop-color="#fff" stop-opacity="0"/>
    </linearGradient>
    <linearGradient id="paint6_linear" x1="804.367" y1="198.371" x2="874.574" y2="402.116" gradientUnits="userSpaceOnUse">
      <stop stop-color="#fff"/>
      <stop offset="1" stop-color="#fff" stop-opacity="0"/>
    </linearGradient>
    <linearGradient id="paint7_linear" x1="712.061" y1="363.698" x2="812.3" y2="368.393" gradientUnits="userSpaceOnUse">
      <stop stop-color="#fff"/>
      <stop offset="1" stop-color="#fff" stop-opacity="0"/>
    </linearGradient>
    <linearGradient id="paint9_linear" x1="701.262" y1="33.864" x2="698.632" y2="31.774" gradientUnits="userSpaceOnUse">
      <stop stop-color="#fff" stop-opacity="0"/>
      <stop offset="1" stop-color="#fff"/>
    </linearGradient>
    <linearGradient id="paint11_linear" x1="824.906" y1="95.043" x2="1088.72" y2="95.549" gradientUnits="userSpaceOnUse">
      <stop stop-color="#fff"/>
      <stop offset="1" stop-color="#fff" stop-opacity="0"/>
    </linearGradient>
    <linearGradient id="paint12_linear" x1="824.906" y1="-49.622" x2="863.167" y2="87.413" gradientUnits="userSpaceOnUse">
      <stop stop-color="#392DD1"/>
      <stop offset="1" stop-color="#A91B78"/>
    </linearGradient>
    <linearGradient id="paint13_linear" x1="856.031" y1="328.819" x2="856.031" y2="452.785" gradientUnits="userSpaceOnUse">
      <stop stop-color="#fff"/>
      <stop offset="1" stop-color="#fff" stop-opacity="0"/>
    </linearGradient>
    <linearGradient id="paint14_linear" x1="922.502" y1="243.644" x2="1021.27" y2="322.874" gradientUnits="userSpaceOnUse">
      <stop stop-color="#fff"/>
      <stop offset="1" stop-color="#fff" stop-opacity="0"/>
    </linearGradient>
    <linearGradient id="paint15_linear" x1="850.917" y1="178.214" x2="979.902" y2="178.214" gradientUnits="userSpaceOnUse">
      <stop stop-color="#fff"/>
      <stop offset="1" stop-color="#fff" stop-opacity="0"/>
    </linearGradient>
    <linearGradient id="paint16_linear" x1="898.747" y1="405.031" x2="1000.01" y2="477.616" gradientUnits="userSpaceOnUse">
      <stop stop-color="#fff"/>
      <stop offset="1" stop-color="#fff" stop-opacity="0"/>
    </linearGradient>
    <linearGradient id="paint17_linear" x1="903.511" y1="381.048" x2="1046.1" y2="430.394" gradientUnits="userSpaceOnUse">
      <stop stop-color="#fff"/>
      <stop offset=".981" stop-color="#fff" stop-opacity="0"/>
    </linearGradient>
    <filter id="filter0_f" x="673.269" y="191.579" width="14.089" height="14.089" filterUnits="userSpaceOnUse" color-interpolation-filters="sRGB">
      <feFlood flood-opacity="0" result="BackgroundImageFix"/>
      <feBlend mode="normal" in="SourceGraphic" in2="BackgroundImageFix" result="shape"/>
      <feGaussianBlur stdDeviation="2" result="effect1_foregroundBlur"/>
    </filter>
    <filter id="filter1_f" x="755.912" y="5.588" width="14.089" height="14.089" filterUnits="userSpaceOnUse" color-interpolation-filters="sRGB">
      <feFlood flood-opacity="0" result="BackgroundImageFix"/>
      <feBlend mode="normal" in="SourceGraphic" in2="BackgroundImageFix" result="shape"/>
      <feGaussianBlur stdDeviation="2" result="effect1_foregroundBlur"/>
    </filter>
    <filter id="filter2_f" x="693.865" y="439.572" width="14.089" height="14.089" filterUnits="userSpaceOnUse" color-interpolation-filters="sRGB">
      <feFlood flood-opacity="0" result="BackgroundImageFix"/>
      <feBlend mode="normal" in="SourceGraphic" in2="BackgroundImageFix" result="shape"/>
      <feGaussianBlur stdDeviation="2" result="effect1_foregroundBlur"/>
    </filter>
    <filter id="filter3_f" x="693.865" y="26.252" width="14.089" height="14.089" filterUnits="userSpaceOnUse" color-interpolation-filters="sRGB">
      <feFlood flood-opacity="0" result="BackgroundImageFix"/>
      <feBlend mode="normal" in="SourceGraphic" in2="BackgroundImageFix" result="shape"/>
      <feGaussianBlur stdDeviation="2" result="effect1_foregroundBlur"/>
    </filter>
    <filter id="filter4_f" x="693.865" y="356.908" width="14.089" height="14.089" filterUnits="userSpaceOnUse" color-interpolation-filters="sRGB">
      <feFlood flood-opacity="0" result="BackgroundImageFix"/>
      <feBlend mode="normal" in="SourceGraphic" in2="BackgroundImageFix" result="shape"/>
      <feGaussianBlur stdDeviation="2" result="effect1_foregroundBlur"/>
    </filter>
    <filter id="filter5_f" x="755.866" y="88.252" width="14.089" height="14.089" filterUnits="userSpaceOnUse" color-interpolation-filters="sRGB">
      <feFlood flood-opacity="0" result="BackgroundImageFix"/>
      <feBlend mode="normal" in="SourceGraphic" in2="BackgroundImageFix" result="shape"/>
      <feGaussianBlur stdDeviation="2" result="effect1_foregroundBlur"/>
    </filter>
    <radialGradient id="paint3_radial" cx="0" cy="0" r="1" gradientUnits="userSpaceOnUse" gradientTransform="matrix(0 2 -2 0 680.313 198.624)">
      <stop offset=".167" stop-color="#fff"/>
      <stop offset="1" stop-color="#fff" stop-opacity="0"/>
    </radialGradient>
    <radialGradient id="paint5_radial" cx="0" cy="0" r="1" gradientUnits="userSpaceOnUse" gradientTransform="rotate(-135.065 384.086 -151.426) scale(2.78802 2.40797)">
      <stop stop-color="#fff"/>
      <stop offset="1" stop-color="#fff" stop-opacity="0"/>
    </radialGradient>
    <radialGradient id="paint8_radial" cx="0" cy="0" r="1" gradientUnits="userSpaceOnUse" gradientTransform="rotate(-135.065 442.824 78.388) scale(2.78802 2.40797)">
      <stop stop-color="#fff"/>
      <stop offset="1" stop-color="#fff" stop-opacity="0"/>
    </radialGradient>
    <radialGradient id="paint10_radial" cx="0" cy="0" r="1" gradientUnits="userSpaceOnUse" gradientTransform="rotate(-135.065 425.73 37.056) scale(2.78802 2.40797)">
      <stop stop-color="#fff"/>
      <stop offset="1" stop-color="#fff" stop-opacity="0"/>
    </radialGradient>
    <radialGradient id="paint18_radial" cx="0" cy="0" r="1" gradientUnits="userSpaceOnUse" gradientTransform="rotate(-135.065 401.18 -110.092) scale(2.78802 2.40797)">
      <stop stop-color="#fff"/>
      <stop offset="1" stop-color="#fff" stop-opacity="0"/>
    </radialGradient>
    <clipPath id="clip0">
      <path fill="#fff" transform="translate(659.325 -135.741)" d="M0 0h475.823v730.731H0z"/>
    </clipPath>
  </defs>
</svg>
