<svg fill="none" xmlns="http://www.w3.org/2000/svg" viewBox="0 0 1473 456">
  <mask id="a" maskUnits="userSpaceOnUse" x="0" y="0" width="1473" height="456">
    <path fill="url(#paint0_linear)" d="M.666 4.144h1471.6v451.612H.666z"/>
  </mask>
  <path d="M3310.09-3.139H-7.405v460H3310.09V-3.139z" fill="url(#paint1_linear)"/>
  <g opacity=".24">
    <path opacity=".7" d="M-145.534 382.496c25.413-11.774 82.607-2.647 121.492-16.974 29.716-10.935 51.53-57.938 88.241-68.132 31.663-8.795 74.379 19.836 110.724 12.931 30.979-5.887 56.978-47.347 88.154-49.911 31.262-2.586 64.177 34.049 95.587 34.03 31.305 0 63.736-36.718 95.138-34.926 68.844 3.932 135.192 47.106 204.523 54.15 69.021 7.014 142.708-21.931 211.246-11.858 69.044 10.168 131.209 59.149 198.769 72.436 45.69 8.984 98.14-19.874 144.34-12.92 46.2 6.953 88.44 50.005 134.96 53.276 46.52 3.271 93.69-33.49 140.4-35.596 48.06-2.163 100.16 29.251 147.53 20.396 47.21-8.825 85.31-57.183 131.58-70.485 46.39-13.34 103.66 7.65 148.84-8.012 53.42-18.528 92.16-75.185 144.16-96.635 52.13-21.511 117.76-7.876 170.8-26.952 52.72-18.906 96.36-71.649 152.27-82.845 38.24-7.657 82.27 24.165 121.11 20.736 38.84-3.43 76.62-42.482 115.6-41.673 38.98.81 75.08 41.393 113.74 46.456 65.52 8.583 137.56-15.503 202.52-.129 64.5 15.28 119.28 69.479 183.24 87.326 64.33 17.93 138.16-.431 201.99 15.881 61.85 15.767 108.43 66.594 161.37 78.901 58.91 13.699 121.82-11.903 179.28-2.76 54.97 8.75 107.31 52.887 170 57.247 22.51 1.561 46.01-35.044 66.17-34.22 23.13.942 43.62 39.252 63.18 39.487 24.61.295 64.86-22.903 82.87-23.209" stroke="url(#paint2_linear)" stroke-miterlimit="10"/>
    <path opacity=".7" d="M-145.534 415.823c25.413-11.771 82.607-2.647 121.492-16.973 29.716-10.936 51.53-57.939 88.241-68.133 31.663-8.791 74.379 19.84 110.724 12.931 30.979-5.887 56.978-47.347 88.154-49.911 31.262-2.59 64.177 34.031 95.587 34.031 31.305 0 63.735-36.719 95.138-34.923 68.844 3.928 135.192 47.102 204.523 54.146 69.021 7.014 142.708-21.931 211.246-11.854 69.044 10.164 131.209 59.145 198.769 72.432 45.69 8.984 98.14-19.874 144.34-12.917 46.2 6.958 88.44 50.029 134.96 53.288 46.52 3.26 93.69-33.489 140.4-35.592 48.06-2.166 100.16 29.247 147.53 20.396 47.21-8.825 85.31-57.186 131.58-70.489 46.38-13.355 103.65 7.635 148.84-8.023 53.42-18.528 92.15-75.185 144.15-96.635 52.14-21.511 117.76-7.876 170.81-26.937 52.72-18.94 96.36-71.664 152.27-82.879 38.24-7.657 82.27 24.169 121.11 20.736 38.84-3.434 76.62-42.463 115.6-41.654 38.98.809 75.07 41.389 113.74 46.452 65.51 8.583 137.55-15.503 202.51-.125 64.49 15.28 119.28 69.475 183.25 87.307 64.33 17.926 138.16-.431 201.99 15.881 61.85 15.782 108.43 66.609 161.37 78.916 58.91 13.699 121.82-11.903 179.28-2.76 54.97 8.75 107.31 52.891 170 57.247 22.51 1.565 46.01-35.04 66.17-34.22 23.13.942 43.62 39.253 63.18 39.487 24.61.299 64.86-22.902 82.87-23.209" stroke="url(#paint3_linear)" stroke-miterlimit="10"/>
    <path opacity=".7" d="M-145.534 449.139c25.413-11.775 82.607-2.647 121.492-16.977 29.716-10.92 51.53-57.924 88.241-68.099 31.663-8.791 74.379 19.84 110.724 12.931 30.979-5.887 56.978-47.347 88.154-49.911 31.262-2.59 64.177 34.031 95.587 34.031 31.305 0 63.736-36.715 95.138-34.923 68.844 3.932 135.192 47.105 204.523 54.15 69.021 7.01 142.708-21.95 211.246-11.858 69.044 10.164 131.209 59.149 198.769 72.432 45.69 8.984 98.14-19.874 144.34-12.916 46.2 6.957 88.44 50.028 134.96 53.287 46.52 3.26 93.7-33.52 140.4-35.626 48.06-2.166 100.16 29.248 147.53 20.396 47.21-8.825 85.31-57.186 131.58-70.488 46.39-13.337 103.66 7.649 148.84-8.013 53.42-18.527 92.16-75.181 144.16-96.635 52.14-21.507 117.75-7.876 170.81-26.933 52.71-18.94 96.35-71.664 152.26-82.864 38.24-7.653 82.27 24.169 121.11 20.74 38.84-3.43 76.62-42.482 115.6-41.673 38.98.81 75.07 41.389 113.74 46.452 65.51 8.583 137.55-15.503 202.51-.125 64.49 15.28 119.28 69.479 183.25 87.307 64.33 17.927 138.16-.431 201.99 15.881 61.85 15.79 108.43 66.613 161.37 78.935 58.91 13.7 121.82-11.903 179.28-2.756 54.97 8.75 107.31 52.887 170 57.243 22.51 1.565 46.01-35.04 66.17-34.22 23.13.942 43.62 39.253 63.18 39.487 24.61.299 64.86-22.899 82.87-23.205" stroke="#fff" stroke-miterlimit="10"/>
    <path opacity=".7" d="M-145.534 482.481c25.413-11.774 82.607-2.666 121.492-16.973 29.716-10.936 51.53-57.943 88.241-68.133 31.663-8.795 74.379 19.836 110.724 12.931 30.979-5.887 56.978-47.351 88.154-49.911 31.262-2.586 64.177 34.031 95.587 34.031 31.305 0 63.735-36.719 95.138-34.927 68.844 3.932 135.192 47.106 204.523 54.15 69.021 7.01 142.708-21.95 211.246-11.858 69.044 10.168 131.209 59.149 198.769 72.436 45.69 8.984 98.14-19.878 144.34-12.92 46.2 6.957 88.44 50.032 134.96 53.291 46.52 3.26 93.69-33.489 140.4-35.595 48.06-2.163 100.16 29.251 147.53 20.395 47.21-8.825 85.31-57.182 131.58-70.484 46.39-13.34 103.66 7.645 148.84-8.017 53.42-18.527 92.16-75.18 144.16-96.635 52.14-21.507 117.75-7.872 170.81-26.933 52.72-18.94 96.36-71.664 152.29-82.86 38.23-7.657 82.26 24.165 121.1 20.736 38.84-3.43 76.6-42.497 115.58-41.672 38.98.824 75.07 41.388 113.74 46.455 65.51 8.579 137.55-15.503 202.51-.129 64.49 15.28 119.28 69.479 183.25 87.307 64.33 17.931 138.16-.431 201.99 15.881 61.85 15.771 108.43 66.598 161.37 78.902 58.91 13.703 121.82-11.9 179.28-2.757 54.97 8.75 107.31 52.887 170 57.243 22.51 1.566 46.01-35.04 66.17-34.219 23.13.941 43.62 39.252 63.18 39.49 24.61.295 64.86-22.902 82.87-23.209" stroke="url(#paint4_linear)" stroke-miterlimit="10"/>
    <path opacity=".7" d="M-145.534 515.808c25.413-11.774 82.607-2.646 121.492-16.973C5.674 487.9 27.488 440.896 64.2 430.702c31.663-8.787 74.379 19.836 110.724 12.932 30.979-5.888 56.978-47.348 88.154-49.931 31.262-2.586 64.177 34.05 95.587 34.031 31.305 0 63.736-36.719 95.138-34.927 68.844 3.933 135.192 47.106 204.523 54.15 69.021 7.014 142.708-21.93 211.246-11.857 69.044 10.167 131.209 59.148 198.769 72.435 45.69 8.984 98.14-19.874 144.34-12.92 46.2 6.954 88.44 50.032 134.96 53.292 46.52 3.259 93.69-33.49 140.4-35.596 48.06-2.163 100.16 29.251 147.53 20.395 47.21-8.825 85.31-57.182 131.58-70.484 46.39-13.34 103.66 7.649 148.84-8.013 53.42-18.527 92.16-75.184 144.16-96.635 52.13-21.492 117.76-7.879 170.8-26.933 52.72-18.94 96.36-71.664 152.29-82.86 38.23-7.657 82.27 24.165 121.11 20.736 38.84-3.43 76.6-42.466 115.58-41.672 38.98.794 75.08 41.388 113.74 46.47 65.52 8.583 137.56-15.503 202.52-.128 64.5 15.253 119.28 69.463 183.24 87.291 64.33 17.931 138.16-.431 201.99 15.881 61.85 15.787 108.43 66.613 161.37 78.921 58.91 13.699 121.82-11.904 179.28-2.761 54.97 8.75 107.31 52.887 170 57.247 22.51 1.562 46.01-35.044 66.17-34.223 23.13.945 43.62 39.256 63.18 39.49 24.61.295 64.86-22.902 82.87-23.209" stroke="#fff" stroke-miterlimit="10"/>
    <path opacity=".7" d="M-145.534 549.135c25.413-11.77 82.607-2.646 121.492-16.973 29.716-10.935 51.53-57.939 88.241-68.133 31.663-8.791 74.379 19.84 110.724 12.932 30.979-5.891 56.978-47.348 88.154-49.93 31.262-2.587 64.177 34.049 95.587 34.03 31.305 0 63.736-36.719 95.138-34.923 68.844 3.929 135.192 47.102 204.523 54.146 69.021 7.014 142.708-21.93 211.246-11.857 69.044 10.167 131.209 59.148 198.769 72.435 45.69 8.984 98.14-19.873 144.34-12.916 46.2 6.957 88.44 50.028 134.96 53.288 46.52 3.259 93.69-33.49 140.4-35.592 48.06-2.167 100.16 29.247 147.53 20.395 47.21-8.825 85.31-57.186 131.58-70.488 46.39-13.34 103.66 7.649 148.84-8.012 53.42-18.528 92.16-75.185 144.16-96.635 52.14-21.511 117.75-7.877 170.81-26.937 52.72-18.936 96.36-71.661 152.29-82.861 38.23-7.656 82.26 24.17 121.1 20.736 38.84-3.433 76.6-42.473 115.58-41.668 38.98.805 75.07 41.392 113.74 46.455 65.51 8.583 137.55-15.503 202.51-.125 64.49 15.28 119.28 69.475 183.25 87.307 64.33 17.927 138.16-.431 201.99 15.881 61.85 15.783 108.43 66.609 161.37 78.917 58.91 13.699 121.82-11.903 179.28-2.761 54.97 8.75 107.31 52.891 170 57.247 22.51 1.566 46.01-35.044 66.17-34.219 23.13.941 43.62 39.252 63.18 39.486 24.61.295 64.86-22.902 82.87-23.208" stroke="#fff" stroke-miterlimit="10"/>
    <path d="M-145.534 582.466c25.413-11.774 82.607-2.646 121.492-16.977 29.716-10.935 51.53-57.939 88.241-68.133 31.663-8.791 74.379 19.84 110.724 12.932 30.979-5.887 56.978-47.348 88.154-49.911 31.262-2.59 64.177 34.03 95.587 34.03 31.305 0 63.736-36.715 95.138-34.923 68.844 3.933 135.192 47.106 204.523 54.15 69.021 7.011 142.708-21.93 211.246-11.857 69.044 10.163 131.209 59.148 198.769 72.431 45.69 8.984 98.14-19.873 144.34-12.916 46.2 6.957 88.44 50.028 134.96 53.288 46.52 3.259 93.69-33.486 140.4-35.592 48.06-2.167 100.16 29.247 147.53 20.395 47.21-8.825 85.31-57.186 131.58-70.488 46.39-13.336 103.66 7.649 148.84-8.012 53.42-18.528 92.16-75.181 144.16-96.635 52.14-21.508 117.75-7.876 170.81-26.933 52.72-18.94 96.36-71.665 152.29-82.865 38.23-7.653 82.26 24.17 121.1 20.736 38.84-3.433 76.6-42.492 115.58-41.683 38.98.809 75.07 41.388 113.74 46.451 65.51 8.584 137.55-15.502 202.51-.124 64.49 15.279 119.28 69.478 183.25 87.307 64.33 17.926 138.16-.432 201.99 15.88 61.85 15.787 108.43 66.621 161.37 78.917 58.91 13.699 121.82-11.903 179.28-2.757 54.97 8.75 107.31 52.887 170 57.243 22.51 1.566 46.01-35.04 66.17-34.219 23.13.941 43.62 39.252 63.18 39.487 24.61.298 64.86-22.899 82.87-23.205" stroke="#fff" stroke-opacity=".16" stroke-miterlimit="10"/>
    <path d="M-145.534 615.793c25.413-11.774 82.607-2.646 121.492-16.973 29.716-10.935 51.53-57.943 88.241-68.133 31.663-8.795 74.379 19.836 110.724 12.932 30.979-5.888 56.978-47.352 88.154-49.912 31.262-2.586 64.177 34.031 95.587 34.031 31.305 0 63.736-36.719 95.138-34.927 68.844 3.933 135.192 47.106 204.523 54.15 69.021 7.011 142.708-21.949 211.246-11.857 69.044 10.167 131.209 59.148 198.769 72.435 45.69 8.984 98.14-19.877 144.34-12.92 46.2 6.957 88.44 50.032 134.96 53.292 46.52 3.259 93.69-33.49 140.4-35.596 48.06-2.163 100.16 29.251 147.53 20.395 47.21-8.825 85.31-57.182 131.58-70.488 46.39-13.336 103.66 7.649 148.84-8.012 53.42-18.528 92.16-75.181 144.16-96.635 52.13-21.523 117.76-7.888 170.8-26.964 52.72-18.906 96.36-71.649 152.27-82.845 38.24-7.657 82.27 24.165 121.11 20.736 38.84-3.43 76.62-42.481 115.6-41.672 38.98.809 75.08 41.392 113.74 46.455 65.52 8.58 137.56-15.503 202.52-.128 64.5 15.279 119.28 69.478 183.24 87.325 64.33 17.931 138.16-.431 201.99 15.881 61.85 15.768 108.43 66.594 161.37 78.898 58.91 13.703 121.82-11.899 179.28-2.757 54.97 8.75 107.31 52.888 170 57.243 22.51 1.566 46.01-35.04 66.17-34.219 23.13.941 43.62 39.252 63.18 39.49 24.61.295 64.86-22.902 82.87-23.208" stroke="#fff" stroke-opacity=".16" stroke-miterlimit="10"/>
    <path d="M-145.534 649.121c25.413-11.775 82.607-2.666 121.492-16.974 29.716-10.935 51.53-57.939 88.241-68.133 31.663-8.795 74.379 19.836 110.724 12.932 30.979-5.887 56.978-47.351 88.154-49.911 31.262-2.587 64.177 34.03 95.587 34.03 31.305 0 63.736-36.719 95.138-34.926 68.844 3.932 135.192 47.105 204.523 54.149 69.021 7.011 142.708-21.93 211.246-11.857 69.044 10.167 131.209 59.148 198.769 72.435 45.69 8.984 98.14-19.873 144.34-12.92 46.2 6.954 88.44 50.032 134.96 53.292 46.52 3.259 93.69-33.49 140.4-35.596 48.06-2.163 100.16 29.251 147.53 20.396 47.21-8.826 85.31-57.183 131.58-70.485 46.39-13.34 103.66 7.646 148.84-8.012 53.42-18.528 92.16-75.185 144.16-96.639 52.14-21.507 117.75-7.872 170.81-26.933 52.71-18.955 96.35-71.68 152.26-82.891 38.24-7.657 82.27 24.166 121.11 20.736 38.84-3.429 76.62-42.466 115.6-41.657 38.98.809 75.07 41.389 113.74 46.455 65.51 8.584 137.55-15.502 202.51-.128 64.49 15.279 119.28 69.479 183.25 87.307 64.33 17.93 138.16-.431 201.99 15.881 61.85 15.786 108.43 66.612 161.37 78.92 58.91 13.699 121.82-11.903 179.28-2.76 54.97 8.749 107.31 52.887 170 57.246 22.51 1.562 46.01-35.043 66.17-34.223 23.13.945 43.62 39.256 63.18 39.491 24.61.294 64.86-22.903 82.87-23.209" stroke="#fff" stroke-opacity=".16" stroke-miterlimit="10"/>
    <path d="M-145.534 682.437c25.413-11.771 82.607-2.647 121.492-16.974 29.716-10.935 51.53-57.939 88.241-68.133 31.663-8.791 74.379 19.84 110.724 12.932 30.979-5.887 56.978-47.348 88.154-49.93 31.262-2.587 64.177 34.049 95.587 34.03 31.305 0 63.736-36.719 95.138-34.923 68.844 3.929 135.192 47.102 204.523 54.146 69.021 7.014 142.708-21.93 211.246-11.857 69.044 10.167 131.209 59.148 198.769 72.435 45.69 8.984 98.14-19.873 144.34-12.916 46.2 6.957 88.44 50.028 134.96 53.288 46.52 3.259 93.69-33.49 140.4-35.592 48.06-2.167 100.16 29.247 147.53 20.391 47.21-8.825 85.31-57.182 131.58-70.484 46.39-13.34 103.66 7.649 148.84-8.012 53.42-18.528 92.16-75.185 144.16-96.635 52.14-21.511 117.75-7.877 170.81-26.937 52.72-18.936 96.36-71.661 152.29-82.861 38.23-7.656 82.26 24.17 121.1 20.736 38.84-3.433 76.6-42.466 115.58-41.657 38.98.809 75.07 41.393 113.74 46.456 65.51 8.583 137.55-15.503 202.51-.125 64.49 15.276 119.28 69.475 183.25 87.307 64.33 17.926 138.16-.431 201.99 15.881 61.85 15.79 108.43 66.608 161.37 78.935 58.91 13.699 121.82-11.903 179.28-2.76 54.97 8.749 107.31 52.887 170 57.246 22.51 1.562 46.01-35.043 66.17-34.219 23.13.941 43.62 39.252 63.18 39.487 24.61.295 64.86-22.903 82.87-23.209" stroke="#fff" stroke-opacity=".16" stroke-miterlimit="10"/>
    <path d="M-145.534 715.775c25.413-11.771 82.607-2.647 121.492-16.974 29.716-10.935 51.53-57.938 88.241-68.132 31.663-8.792 74.379 19.839 110.724 12.931 30.979-5.887 56.978-47.348 88.154-49.911 31.262-2.59 64.177 34.03 95.587 34.03 31.305 0 63.736-36.719 95.138-34.923 68.844 3.933 135.192 47.106 204.523 54.147 69.021 7.014 142.708-21.931 211.246-11.854 69.044 10.163 131.209 59.148 198.769 72.432 45.69 8.984 98.14-19.874 144.34-12.917 46.2 6.957 88.44 50.029 134.96 53.288 46.52 3.259 93.69-33.486 140.4-35.592 48.06-2.167 100.16 29.247 147.53 20.396 47.21-8.826 85.31-57.187 131.58-70.489 46.39-13.336 103.66 7.649 148.84-8.012 53.42-18.528 92.16-75.181 144.16-96.635 52.14-21.507 117.75-7.876 170.81-26.933 52.72-18.94 96.36-71.665 152.29-82.864 38.23-7.653 82.26 24.169 121.1 20.735 38.84-3.433 76.6-42.492 115.58-41.668 38.98.824 75.07 41.389 113.74 46.452 65.51 8.583 137.55-15.503 202.51-.125 64.49 15.28 119.28 69.479 183.25 87.307 64.33 17.926 138.16-.431 201.99 15.881 61.85 15.771 108.43 66.597 161.37 78.901 58.91 13.699 121.82-11.903 179.28-2.756 54.97 8.749 107.31 52.887 170 57.243 22.51 1.565 46.01-35.04 66.17-34.22 23.13.942 43.62 39.252 63.18 39.487 24.61.298 64.86-22.899 82.87-23.205" stroke="#fff" stroke-opacity=".16" stroke-miterlimit="10"/>
    <g opacity=".7" filter="url(#filter0_f)">
      <circle cx="177.302" cy="342.992" r="3.073" fill="#E9E9F4"/>
    </g>
    <g filter="url(#filter1_f)">
      <circle cx="177.302" cy="342.992" r="2" fill="#fff"/>
    </g>
    <g opacity=".72" filter="url(#filter2_f)">
      <circle cx="57.083" cy="299.621" r="3.073" fill="#E9E9F4"/>
    </g>
    <g filter="url(#filter3_f)">
      <circle cx="57.083" cy="299.621" r="2" fill="#fff"/>
    </g>
    <g opacity=".7" filter="url(#filter4_f)">
      <circle cx="272.122" cy="327.319" r="3.073" fill="url(#paint5_linear)"/>
    </g>
    <g opacity=".5" filter="url(#filter5_f)">
      <circle cx="272.122" cy="327.32" r="2" fill="url(#paint6_linear)"/>
    </g>
    <g opacity=".7" filter="url(#filter6_f)">
      <circle cx="408.486" cy="375.001" r="3.073" fill="#E9E9F4"/>
    </g>
    <g filter="url(#filter7_f)">
      <circle cx="408.486" cy="375.002" r="2" fill="#fff"/>
    </g>
    <g opacity=".7" filter="url(#filter8_f)">
      <circle cx="781.078" cy="370.919" r="3.073" fill="#E9E9F4"/>
    </g>
    <g filter="url(#filter9_f)">
      <circle cx="781.078" cy="370.919" r="2" fill="#fff"/>
    </g>
    <g opacity=".7" filter="url(#filter10_f)">
      <circle cx="654.264" cy="313.194" r="3.073" fill="url(#paint7_linear)"/>
    </g>
    <g opacity=".5" filter="url(#filter11_f)">
      <circle cx="654.265" cy="313.195" r="2" fill="url(#paint8_linear)"/>
    </g>
    <g opacity=".7" filter="url(#filter12_f)">
      <circle cx="543.789" cy="414.256" r="3.073" fill="#E9E9F4"/>
    </g>
    <g filter="url(#filter13_f)">
      <circle cx="543.789" cy="414.256" r="2" fill="#fff"/>
    </g>
    <g opacity=".7" filter="url(#filter14_f)">
      <circle cx="919.323" cy="315.131" r="3.073" fill="#E9E9F4"/>
    </g>
    <g filter="url(#filter15_f)">
      <circle cx="919.323" cy="315.131" r="2" fill="#fff"/>
    </g>
    <g opacity=".7" filter="url(#filter16_f)">
      <circle cx="283.986" cy="430.354" r="3.073" fill="#E9E9F4"/>
    </g>
    <g filter="url(#filter17_f)">
      <circle cx="283.986" cy="430.354" r="2" fill="#fff"/>
    </g>
  </g>
  <defs>
    <filter id="filter0_f" x="170.229" y="335.919" width="14.146" height="14.146" filterUnits="userSpaceOnUse" color-interpolation-filters="sRGB">
      <feFlood flood-opacity="0" result="BackgroundImageFix"/>
      <feBlend in="SourceGraphic" in2="BackgroundImageFix" result="shape"/>
      <feGaussianBlur stdDeviation="2" result="effect1_foregroundBlur"/>
    </filter>
    <filter id="filter1_f" x="174.302" y="339.992" width="6" height="6" filterUnits="userSpaceOnUse" color-interpolation-filters="sRGB">
      <feFlood flood-opacity="0" result="BackgroundImageFix"/>
      <feBlend in="SourceGraphic" in2="BackgroundImageFix" result="shape"/>
      <feGaussianBlur stdDeviation=".5" result="effect1_foregroundBlur"/>
    </filter>
    <filter id="filter2_f" x="50.01" y="292.548" width="14.146" height="14.146" filterUnits="userSpaceOnUse" color-interpolation-filters="sRGB">
      <feFlood flood-opacity="0" result="BackgroundImageFix"/>
      <feBlend in="SourceGraphic" in2="BackgroundImageFix" result="shape"/>
      <feGaussianBlur stdDeviation="2" result="effect1_foregroundBlur"/>
    </filter>
    <filter id="filter3_f" x="54.083" y="296.621" width="6" height="6" filterUnits="userSpaceOnUse" color-interpolation-filters="sRGB">
      <feFlood flood-opacity="0" result="BackgroundImageFix"/>
      <feBlend in="SourceGraphic" in2="BackgroundImageFix" result="shape"/>
      <feGaussianBlur stdDeviation=".5" result="effect1_foregroundBlur"/>
    </filter>
    <filter id="filter4_f" x="265.049" y="320.246" width="14.146" height="14.146" filterUnits="userSpaceOnUse" color-interpolation-filters="sRGB">
      <feFlood flood-opacity="0" result="BackgroundImageFix"/>
      <feBlend in="SourceGraphic" in2="BackgroundImageFix" result="shape"/>
      <feGaussianBlur stdDeviation="2" result="effect1_foregroundBlur"/>
    </filter>
    <filter id="filter5_f" x="269.122" y="324.32" width="6" height="6" filterUnits="userSpaceOnUse" color-interpolation-filters="sRGB">
      <feFlood flood-opacity="0" result="BackgroundImageFix"/>
      <feBlend in="SourceGraphic" in2="BackgroundImageFix" result="shape"/>
      <feGaussianBlur stdDeviation=".5" result="effect1_foregroundBlur"/>
    </filter>
    <filter id="filter6_f" x="401.413" y="367.928" width="14.146" height="14.146" filterUnits="userSpaceOnUse" color-interpolation-filters="sRGB">
      <feFlood flood-opacity="0" result="BackgroundImageFix"/>
      <feBlend in="SourceGraphic" in2="BackgroundImageFix" result="shape"/>
      <feGaussianBlur stdDeviation="2" result="effect1_foregroundBlur"/>
    </filter>
    <filter id="filter7_f" x="405.486" y="372.002" width="6" height="6" filterUnits="userSpaceOnUse" color-interpolation-filters="sRGB">
      <feFlood flood-opacity="0" result="BackgroundImageFix"/>
      <feBlend in="SourceGraphic" in2="BackgroundImageFix" result="shape"/>
      <feGaussianBlur stdDeviation=".5" result="effect1_foregroundBlur"/>
    </filter>
    <filter id="filter8_f" x="774.005" y="363.846" width="14.146" height="14.146" filterUnits="userSpaceOnUse" color-interpolation-filters="sRGB">
      <feFlood flood-opacity="0" result="BackgroundImageFix"/>
      <feBlend in="SourceGraphic" in2="BackgroundImageFix" result="shape"/>
      <feGaussianBlur stdDeviation="2" result="effect1_foregroundBlur"/>
    </filter>
    <filter id="filter9_f" x="778.078" y="367.919" width="6" height="6" filterUnits="userSpaceOnUse" color-interpolation-filters="sRGB">
      <feFlood flood-opacity="0" result="BackgroundImageFix"/>
      <feBlend in="SourceGraphic" in2="BackgroundImageFix" result="shape"/>
      <feGaussianBlur stdDeviation=".5" result="effect1_foregroundBlur"/>
    </filter>
    <filter id="filter10_f" x="647.191" y="306.121" width="14.146" height="14.146" filterUnits="userSpaceOnUse" color-interpolation-filters="sRGB">
      <feFlood flood-opacity="0" result="BackgroundImageFix"/>
      <feBlend in="SourceGraphic" in2="BackgroundImageFix" result="shape"/>
      <feGaussianBlur stdDeviation="2" result="effect1_foregroundBlur"/>
    </filter>
    <filter id="filter11_f" x="651.265" y="310.195" width="6" height="6" filterUnits="userSpaceOnUse" color-interpolation-filters="sRGB">
      <feFlood flood-opacity="0" result="BackgroundImageFix"/>
      <feBlend in="SourceGraphic" in2="BackgroundImageFix" result="shape"/>
      <feGaussianBlur stdDeviation=".5" result="effect1_foregroundBlur"/>
    </filter>
    <filter id="filter12_f" x="536.716" y="407.183" width="14.146" height="14.146" filterUnits="userSpaceOnUse" color-interpolation-filters="sRGB">
      <feFlood flood-opacity="0" result="BackgroundImageFix"/>
      <feBlend in="SourceGraphic" in2="BackgroundImageFix" result="shape"/>
      <feGaussianBlur stdDeviation="2" result="effect1_foregroundBlur"/>
    </filter>
    <filter id="filter13_f" x="540.789" y="411.256" width="6" height="6" filterUnits="userSpaceOnUse" color-interpolation-filters="sRGB">
      <feFlood flood-opacity="0" result="BackgroundImageFix"/>
      <feBlend in="SourceGraphic" in2="BackgroundImageFix" result="shape"/>
      <feGaussianBlur stdDeviation=".5" result="effect1_foregroundBlur"/>
    </filter>
    <filter id="filter14_f" x="912.25" y="308.058" width="14.146" height="14.146" filterUnits="userSpaceOnUse" color-interpolation-filters="sRGB">
      <feFlood flood-opacity="0" result="BackgroundImageFix"/>
      <feBlend in="SourceGraphic" in2="BackgroundImageFix" result="shape"/>
      <feGaussianBlur stdDeviation="2" result="effect1_foregroundBlur"/>
    </filter>
    <filter id="filter15_f" x="916.323" y="312.131" width="6" height="6" filterUnits="userSpaceOnUse" color-interpolation-filters="sRGB">
      <feFlood flood-opacity="0" result="BackgroundImageFix"/>
      <feBlend in="SourceGraphic" in2="BackgroundImageFix" result="shape"/>
      <feGaussianBlur stdDeviation=".5" result="effect1_foregroundBlur"/>
    </filter>
    <filter id="filter16_f" x="276.913" y="423.281" width="14.146" height="14.146" filterUnits="userSpaceOnUse" color-interpolation-filters="sRGB">
      <feFlood flood-opacity="0" result="BackgroundImageFix"/>
      <feBlend in="SourceGraphic" in2="BackgroundImageFix" result="shape"/>
      <feGaussianBlur stdDeviation="2" result="effect1_foregroundBlur"/>
    </filter>
    <filter id="filter17_f" x="280.986" y="427.354" width="6" height="6" filterUnits="userSpaceOnUse" color-interpolation-filters="sRGB">
      <feFlood flood-opacity="0" result="BackgroundImageFix"/>
      <feBlend in="SourceGraphic" in2="BackgroundImageFix" result="shape"/>
      <feGaussianBlur stdDeviation=".5" result="effect1_foregroundBlur"/>
    </filter>
    <linearGradient id="paint0_linear" x1=".666" y1="4.144" x2="384.86" y2="908.096" gradientUnits="userSpaceOnUse">
      <stop stop-color="#392DD1"/>
      <stop offset="1" stop-color="#22B8CF"/>
    </linearGradient>
    <linearGradient id="paint1_linear" x1="1105.39" y1="224.731" x2="-7.405" y2="224.731" gradientUnits="userSpaceOnUse">
      <stop stop-color="#A41F66"/>
      <stop offset="1" stop-color="#7C36AB"/>
    </linearGradient>
    <linearGradient id="paint2_linear" x1="6.83" y1="302.74" x2="1109.94" y2="290.458" gradientUnits="userSpaceOnUse">
      <stop stop-color="#fff"/>
      <stop offset="1" stop-color="#fff" stop-opacity="0"/>
    </linearGradient>
    <linearGradient id="paint3_linear" x1="1108.36" y1="344.38" x2="-19.393" y2="344.081" gradientUnits="userSpaceOnUse">
      <stop stop-color="#fff" stop-opacity="0"/>
      <stop offset=".359" stop-color="#fff"/>
    </linearGradient>
    <linearGradient id="paint4_linear" x1="1101.14" y1="354.162" x2="5.256" y2="408.851" gradientUnits="userSpaceOnUse">
      <stop offset=".516" stop-color="#fff"/>
      <stop offset="1" stop-color="#fff" stop-opacity="0"/>
    </linearGradient>
    <linearGradient id="paint5_linear" x1="275.195" y1="330.393" x2="268.344" y2="325.425" gradientUnits="userSpaceOnUse">
      <stop stop-color="#BF14A2"/>
      <stop offset="1" stop-color="#F73A1C"/>
    </linearGradient>
    <linearGradient id="paint6_linear" x1="274.122" y1="329.32" x2="269.663" y2="326.087" gradientUnits="userSpaceOnUse">
      <stop stop-color="#BF14A2"/>
      <stop offset="1" stop-color="#F73A1C"/>
    </linearGradient>
    <linearGradient id="paint7_linear" x1="657.337" y1="316.268" x2="650.487" y2="311.3" gradientUnits="userSpaceOnUse">
      <stop stop-color="#BF14A2"/>
      <stop offset="1" stop-color="#F73A1C"/>
    </linearGradient>
    <linearGradient id="paint8_linear" x1="656.265" y1="315.195" x2="651.806" y2="311.962" gradientUnits="userSpaceOnUse">
      <stop stop-color="#BF14A2"/>
      <stop offset="1" stop-color="#F73A1C"/>
    </linearGradient>
    <clipPath id="clip0">
      <path fill="#fff" transform="translate(3.114 .52)" d="M0 0h1101v452H0z"/>
    </clipPath>
  </defs>
</svg>
